<?xml version="1.0" encoding="UTF-8" standalone="no"?>
<svg
   xmlns:dc="http://purl.org/dc/elements/1.1/"
   xmlns:cc="http://creativecommons.org/ns#"
   xmlns:rdf="http://www.w3.org/1999/02/22-rdf-syntax-ns#"
   xmlns:svg="http://www.w3.org/2000/svg"
   xmlns="http://www.w3.org/2000/svg"
   xmlns:sodipodi="http://sodipodi.sourceforge.net/DTD/sodipodi-0.dtd"
   xmlns:inkscape="http://www.inkscape.org/namespaces/inkscape"
   width="210mm"
   height="297mm"
   viewBox="0 0 210 297"
   version="1.1"
   id="svg116"
   inkscape:version="1.0.2 (e86c8708, 2021-01-15)"
   sodipodi:docname="middleFrame.svg">
  <defs
     id="defs110" />
  <sodipodi:namedview
     id="base"
     pagecolor="#ffffff"
     bordercolor="#666666"
     borderopacity="1.0"
     inkscape:pageopacity="0.0"
     inkscape:pageshadow="2"
     inkscape:zoom="0.35"
     inkscape:cx="400"
     inkscape:cy="560"
     inkscape:document-units="mm"
     inkscape:current-layer="layer1"
     inkscape:document-rotation="0"
     showgrid="false"
     inkscape:window-width="1252"
     inkscape:window-height="793"
     inkscape:window-x="0"
     inkscape:window-y="25"
     inkscape:window-maximized="0" />
  <metadata
     id="metadata113">
    <rdf:RDF>
      <cc:Work
         rdf:about="">
        <dc:format>image/svg+xml</dc:format>
        <dc:type
           rdf:resource="http://purl.org/dc/dcmitype/StillImage" />
        <dc:title />
      </cc:Work>
    </rdf:RDF>
  </metadata>
  <g
     inkscape:label="Layer 1"
     inkscape:groupmode="layer"
     id="layer1">
    <path
       style="fill:#999999;fill-opacity:1;fill-rule:evenodd;stroke:none;stroke-width:0.282222px;stroke-linecap:butt;stroke-linejoin:miter;stroke-opacity:1"
       d="m 99.317227,91.542815 c 0.203293,0 0.372302,0.142946 0.412309,0.334035 l 0.0033,-0.0094 2.979874,5.673107 h 5.51436 c 0.28315,0 0.51097,0.228374 0.51097,0.511528 v 4.977475 c 0,0.14214 -0.0575,0.27027 -0.15048,0.3627 h 5.6e-4 l -5.85004,6.13613 v 0.0121 h -0.0116 -5.7e-4 -17.987801 v -5.99998 h -5.48901 c -0.28315,0 -0.51097,-0.22782 -0.51097,-0.51098 v -4.977474 c 0,-0.283154 0.22782,-0.511528 0.51097,-0.511528 h 5.65823 l -0.0209,-0.0017 2.842062,-5.588771 0.0094,0.02481 v -0.01103 c 0,-0.233243 0.187884,-0.42113 0.421129,-0.42113 h 11.158179 z"
       id="rect10505"
       inkscape:connector-curvature="0" />
  </g>
</svg>
