<?xml version="1.0" encoding="UTF-8" standalone="no"?>
<svg
   xmlns:dc="http://purl.org/dc/elements/1.1/"
   xmlns:cc="http://creativecommons.org/ns#"
   xmlns:rdf="http://www.w3.org/1999/02/22-rdf-syntax-ns#"
   xmlns:svg="http://www.w3.org/2000/svg"
   xmlns="http://www.w3.org/2000/svg"
   xmlns:sodipodi="http://sodipodi.sourceforge.net/DTD/sodipodi-0.dtd"
   xmlns:inkscape="http://www.inkscape.org/namespaces/inkscape"
   width="20mm"
   height="20mm"
   viewBox="0 0 20 20"
   version="1.1"
   id="svg83"
   inkscape:version="1.0.2 (e86c8708, 2021-01-15)"
   sodipodi:docname="interests.svg">
  <defs
     id="defs77" />
  <sodipodi:namedview
     id="base"
     pagecolor="#ffffff"
     bordercolor="#666666"
     borderopacity="1.0"
     inkscape:pageopacity="0.0"
     inkscape:pageshadow="2"
     inkscape:zoom="0.33451817"
     inkscape:cx="52.165997"
     inkscape:cy="397.50719"
     inkscape:document-units="mm"
     inkscape:current-layer="layer1"
     inkscape:document-rotation="0"
     showgrid="false"
     inkscape:window-width="1252"
     inkscape:window-height="793"
     inkscape:window-x="0"
     inkscape:window-y="25"
     inkscape:window-maximized="0" />
  <metadata
     id="metadata80">
    <rdf:RDF>
      <cc:Work
         rdf:about="">
        <dc:format>image/svg+xml</dc:format>
        <dc:type
           rdf:resource="http://purl.org/dc/dcmitype/StillImage" />
        <dc:title></dc:title>
      </cc:Work>
    </rdf:RDF>
  </metadata>
  <g
     inkscape:label="Layer 1"
     inkscape:groupmode="layer"
     id="layer1"
     transform="translate(-92.03108,-42.99289)">
    <g
       id="g98261"
       transform="translate(89.885567,413.29473)">
      <path
         id="path58089"
         style="fill:#808080;stroke-width:6;stroke-linecap:round;stroke-linejoin:round;paint-order:stroke fill markers"
         d="m 2.1455129,-370.30184 v 20 h 19.9999661 3.4e-5 v -20 h -3.4e-5 z m 0.6161218,0.33336 H 11.55642 c -0.491861,0.11197 -0.951173,0.36127 -1.309585,0.71968 -0.4988582,0.49886 -0.7863784,1.19321 -0.7863784,1.89869 0,0.26581 0.040887,0.53002 0.1184421,0.7828 -0.1118841,-0.18713 -0.2464162,-0.36094 -0.4013537,-0.51587 -0.4988571,-0.49886 -1.1931701,-0.78638 -1.898662,-0.78638 -0.049213,0 -0.098373,0.002 -0.1474154,0.004 l -0.00927,-0.0219 c -0.020363,0.009 -0.040449,0.0176 -0.060393,0.0268 -0.5665071,0.0471 -1.1133042,0.27669 -1.5433352,0.64868 z m 9.9729743,0 h 8.794749 l -2.756871,2.75687 c -0.429979,-0.37192 -0.976671,-0.60148 -1.543094,-0.64861 -0.01999,-0.009 -0.04011,-0.0182 -0.06053,-0.0269 l -0.0093,0.0219 c -0.04903,-0.003 -0.09818,-0.004 -0.14738,-0.004 -0.705492,0 -1.39984,0.28748 -1.898698,0.78634 -0.154967,0.15497 -0.289496,0.3288 -0.401388,0.51597 0.0776,-0.25285 0.118477,-0.51712 0.118477,-0.783 0,-0.70549 -0.287486,-1.39983 -0.786344,-1.89869 -0.358412,-0.35842 -0.817759,-0.60771 -1.309619,-0.71969 z m 9.077557,0.28281 v 8.79477 c -0.111981,-0.49185 -0.361305,-0.95117 -0.719717,-1.30958 -0.498858,-0.49886 -1.193169,-0.78641 -1.898662,-0.78641 -0.30246,0 -0.602832,0.053 -0.886665,0.15269 0.220684,-0.12103 0.424815,-0.27258 0.603719,-0.45148 0.498859,-0.49886 0.786414,-1.1932 0.786414,-1.8987 0,-0.63492 -0.232986,-1.26073 -0.643201,-1.74322 z m -19.3333048,0 2.7580089,2.758 c -0.4101444,0.48248 -0.6430619,1.10823 -0.6430619,1.74308 0,0.003 6.67e-5,0.006 1.333e-4,0.009 -1.06e-5,0.003 -1.333e-4,0.006 -1.333e-4,0.009 0,0.7055 0.2875196,1.39987 0.786378,1.89873 0.1584781,0.15848 0.3367302,0.29553 0.5287537,0.4089 -0.2615229,-0.0834 -0.5357277,-0.12764 -0.8117,-0.12764 -0.7054919,0 -1.3998397,0.28755 -1.8986981,0.78641 -0.3584197,0.35842 -0.6077145,0.81775 -0.7196806,1.30962 z m 9.6666698,0.0533 c 0.594959,0 1.193089,0.24782 1.613788,0.66852 0.420698,0.4207 0.668521,1.01883 0.668521,1.61378 0,0.59496 -0.247823,1.19309 -0.668521,1.61379 -0.420699,0.4207 -1.018829,0.66852 -1.613788,0.66852 -0.594957,0 -1.193088,-0.24782 -1.613787,-0.66852 -0.420698,-0.4207 -0.6685211,-1.01883 -0.6685211,-1.61379 0,-0.59495 0.2478231,-1.19308 0.6685211,-1.61378 0.420699,-0.4207 1.01883,-0.66852 1.613787,-0.66852 z m 4.86665,2.16568 c 0.03729,0 0.07459,0.001 0.111862,0.003 0.763288,0.39016 1.163546,1.31423 1.163546,2.26187 0,0.97948 -0.427587,1.93376 -1.241681,2.29936 -0.01124,0 -0.02249,6.7e-4 -0.03373,6.7e-4 -0.594958,0 -1.193089,-0.24779 -1.613788,-0.66849 -0.420699,-0.4207 -0.668522,-1.01886 -0.668522,-1.61382 0,-0.59497 0.247823,-1.19305 0.668522,-1.61375 0.420699,-0.4207 1.01883,-0.66852 1.613788,-0.66852 z m -9.733298,0.0173 v 0 c 0.5949585,0 1.1930543,0.24782 1.6137524,0.66852 0.418621,0.41862 0.6659859,1.01292 0.6684179,1.60496 -0.00243,0.59205 -0.2497969,1.18638 -0.6684179,1.60501 -0.4206981,0.42069 -1.0187939,0.66848 -1.6137524,0.66848 -0.011273,0 -0.022556,2e-5 -0.033831,-6.6e-4 -0.811562,-0.36453 -1.2389176,-1.31415 -1.2414756,-2.29048 0.00247,-0.94457 0.4025036,-1.86417 1.1634442,-2.25313 0.037257,-0.002 0.074585,-0.003 0.1118621,-0.003 z m 10.76307,0.23137 c 0.215643,0.10853 0.414309,0.25007 0.584048,0.41982 0.420699,0.4207 0.668487,1.01882 0.668487,1.61378 0,0.59497 -0.247788,1.1931 -0.668487,1.61379 -0.182421,0.18242 -0.398242,0.33229 -0.632658,0.44359 0.469088,-0.55102 0.696978,-1.31888 0.696978,-2.07488 0,-0.72946 -0.212079,-1.47 -0.648368,-2.0161 z m -11.8159262,0.0294 c -0.4206456,0.54311 -0.6253198,1.27018 -0.6253198,1.98662 0,0.003 1.333e-4,0.006 1.333e-4,0.009 -7.3e-6,0.003 -1.333e-4,0.006 -1.333e-4,0.009 0,0.74249 0.2198389,1.49637 0.6720699,2.04508 -0.2247589,-0.10997 -0.4317657,-0.25551 -0.6076812,-0.43143 -0.4186223,-0.41862 -0.6659852,-1.01295 -0.6684178,-1.605 0.00243,-0.59205 0.2497955,-1.18635 0.6684178,-1.60497 0.1636535,-0.16365 0.354209,-0.30098 0.5609311,-0.4079 z m 8.2196242,1.22108 c -0.07761,0.25288 -0.118511,0.51719 -0.118511,0.78311 0,0.7055 0.287485,1.39984 0.786343,1.8987 0.498858,0.49885 1.193205,0.78634 1.898698,0.78634 0.302497,0 0.602869,-0.053 0.886732,-0.15269 -0.220717,0.12104 -0.424893,0.27262 -0.603821,0.45155 -0.498859,0.49886 -0.786344,1.19318 -0.786344,1.89866 0,0.7055 0.287485,1.39984 0.786344,1.8987 0.145092,0.14509 0.306825,0.27216 0.480452,0.37962 -0.246885,-0.0737 -0.504347,-0.11266 -0.763363,-0.11266 -0.0492,0 -0.09832,0.002 -0.147347,0.004 l -0.0093,-0.0219 c -0.02042,0.009 -0.04057,0.0176 -0.06057,0.0268 -0.62908,0.0524 -1.233962,0.32962 -1.681484,0.77714 -0.498858,0.49886 -0.786343,1.1932 -0.786343,1.8987 0,0.2911 0.04908,0.58027 0.141628,0.85462 -0.11634,-0.20231 -0.25867,-0.38989 -0.42454,-0.55576 -0.498858,-0.49886 -1.193205,-0.78637 -1.898697,-0.78637 -0.705492,0 -1.399838,0.28751 -1.898696,0.78637 -0.154451,0.15446 -0.2885794,0.32766 -0.4002521,0.51412 0.076885,-0.25176 0.1173401,-0.5148 0.1173401,-0.77942 0,-0.70549 -0.2875196,-1.3998 -0.786378,-1.89866 -0.447521,-0.44752 -1.052368,-0.72482 -1.6814485,-0.77718 -0.019999,-0.009 -0.040109,-0.0182 -0.06053,-0.0268 l -0.0093,0.022 c -0.049042,-0.003 -0.098168,-0.004 -0.1473815,-0.004 -0.3055749,0 -0.6090398,0.0541 -0.89545,0.15574 0.2240515,-0.1218 0.4311956,-0.27499 0.6124698,-0.45626 0.4988584,-0.49886 0.7864126,-1.19321 0.7864126,-1.8987 0,-0.70549 -0.2875542,-1.39981 -0.7864126,-1.89866 -0.1584975,-0.1585 -0.3367723,-0.29558 -0.5288224,-0.40897 0.2615528,0.0835 0.5357964,0.12764 0.8118026,0.12764 0.7054919,0 1.3998049,-0.28749 1.898662,-0.78634 0.4988584,-0.49886 0.786378,-1.19324 0.786378,-1.89873 0,-0.003 -3.67e-5,-0.006 -1.334e-4,-0.009 10e-6,-0.003 1.334e-4,-0.006 1.334e-4,-0.009 0,-0.26583 -0.040871,-0.53006 -0.1184428,-0.78286 0.1118874,0.18714 0.2464058,0.36099 0.4013548,0.51593 0.498858,0.49886 1.193204,0.78638 1.898696,0.78638 0.705492,0 1.399839,-0.28752 1.898697,-0.78638 0.154986,-0.15498 0.28952,-0.32888 0.401423,-0.51607 z m -9.5497766,3.39287 v 4.54557 c -0.5263804,-0.0488 -1.0392208,-0.28577 -1.4124231,-0.65898 -0.420699,-0.42069 -0.6685212,-1.01883 -0.6685212,-1.61379 0,-0.59495 0.2478222,-1.19308 0.6685212,-1.61378 0.3732023,-0.3732 0.8860427,-0.61022 1.4124231,-0.65902 z m 0.4027664,0 c 0.5263684,0.0488 1.0392275,0.28582 1.4124211,0.65902 0.420699,0.4207 0.6684872,1.01883 0.6684872,1.61378 0,0.59496 -0.2477882,1.1931 -0.6684872,1.61379 -0.3731936,0.3732 -0.8860527,0.61018 -1.4124211,0.65898 z m 13.6937812,0 v 4.54557 c -0.526381,-0.0488 -1.039219,-0.28577 -1.412421,-0.65898 -0.420698,-0.42069 -0.668521,-1.01883 -0.668521,-1.61379 0,-0.59495 0.247823,-1.19308 0.668521,-1.61378 0.373202,-0.3732 0.88604,-0.61022 1.412421,-0.65902 z m 0.402767,0 c 0.526367,0.0488 1.039227,0.28582 1.41242,0.65902 0.420699,0.4207 0.668487,1.01883 0.668487,1.61378 0,0.59496 -0.247788,1.1931 -0.668487,1.61379 -0.373193,0.3732 -0.886053,0.61018 -1.41242,0.65898 z m -16.9163278,2.86188 c 0.1119661,0.49187 0.3612609,0.9512 0.7196806,1.30962 0.4988584,0.49886 1.1932062,0.78635 1.8986981,0.78635 0.3056103,0 0.6090812,-0.0541 0.8955194,-0.15576 -0.2240775,0.12182 -0.431281,0.27504 -0.6125731,0.45634 -0.4988578,0.49886 -0.786378,1.19317 -0.786378,1.89866 0,0.63448 0.2326729,1.25987 0.6423732,1.74222 l -2.7573202,2.75729 z m 19.3333048,4e-5 v 8.79478 l -2.772788,-2.77282 c 0.419335,-0.48476 0.657877,-1.11789 0.657877,-1.76035 0,-0.70549 -0.287555,-1.39983 -0.786414,-1.89869 -0.145123,-0.14512 -0.306884,-0.27217 -0.480556,-0.37965 0.246924,0.0738 0.504442,0.11266 0.763502,0.11266 0.705493,0 1.399804,-0.28749 1.898662,-0.78635 0.358412,-0.35841 0.607736,-0.81773 0.719717,-1.30958 z m -4.799985,1.97907 v 0 c 0.594957,0 1.19312,0.24778 1.61382,0.66848 0.420699,0.4207 0.668487,1.01886 0.668487,1.61382 0,0.59496 -0.247788,1.19309 -0.668487,1.61379 -0.4207,0.4207 -1.018863,0.66852 -1.61382,0.66852 -0.01122,0 -0.02244,-2e-5 -0.03366,-6.6e-4 -0.814114,-0.36559 -1.241752,-1.31989 -1.241752,-2.29937 0,-0.94764 0.400293,-1.87171 1.163583,-2.26188 0.03727,-0.002 0.07454,-0.003 0.111828,-0.003 z m -9.733298,0.0338 c 0.037277,0 0.074571,9.3e-4 0.1118281,0.003 0.7632986,0.39016 1.1635476,1.31422 1.1635476,2.26187 0,0.97949 -0.427635,1.93377 -1.2417517,2.29936 -0.011217,0 -0.022408,6.7e-4 -0.033624,6.7e-4 -0.5949585,0 -1.1930883,-0.24783 -1.6137873,-0.66853 -0.4206983,-0.42069 -0.6685212,-1.01882 -0.6685212,-1.61379 0,-0.59494 0.2478229,-1.19311 0.6685212,-1.61381 0.420699,-0.4207 1.0188288,-0.66849 1.6137873,-0.66849 z m 8.703523,0.21515 c -0.436289,0.5461 -0.648402,1.28662 -0.648402,2.01607 0,0.756 0.227958,1.52386 0.697046,2.07488 -0.234417,-0.1113 -0.450237,-0.26114 -0.632657,-0.44356 -0.420699,-0.4207 -0.668522,-1.01883 -0.668522,-1.61379 0,-0.59496 0.247823,-1.19312 0.668522,-1.61382 0.169738,-0.16974 0.368369,-0.31125 0.584013,-0.41978 z m -7.6737828,0.0336 c 0.2156428,0.10853 0.4142748,0.25004 0.5840122,0.41978 0.4206997,0.4207 0.6685212,1.01886 0.6685212,1.61382 0,0.59496 -0.2478215,1.19309 -0.6685212,1.61379 -0.1824088,0.1824 -0.3981874,0.33222 -0.6325883,0.44352 0.4690762,-0.55102 0.6969771,-1.31882 0.6969771,-2.07481 0,-0.72946 -0.2121135,-1.47 -0.648401,-2.0161 z m 3.8369078,1.9153 c 0.594959,0 1.193089,0.24778 1.613788,0.66848 0.420698,0.4207 0.668521,1.01884 0.668521,1.61379 0,0.59496 -0.247823,1.1931 -0.668521,1.61379 -0.420699,0.4207 -1.018829,0.66852 -1.613788,0.66852 -0.594957,0 -1.193088,-0.24782 -1.613787,-0.66852 -0.420698,-0.42069 -0.6685211,-1.01883 -0.6685211,-1.61379 0,-0.59495 0.2478231,-1.19309 0.6685211,-1.61379 0.420699,-0.4207 1.01883,-0.66848 1.613787,-0.66848 z m 2.543482,1.42779 c 0.116325,0.20226 0.258632,0.38978 0.42447,0.55562 0.498858,0.49885 1.193206,0.78638 1.898698,0.78638 0.634881,0 1.260635,-0.23297 1.743114,-0.64314 l 2.774063,2.77403 h -8.794749 c 0.49186,-0.11197 0.951208,-0.3613 1.309619,-0.71971 0.498858,-0.49886 0.786344,-1.1932 0.786344,-1.8987 0,-0.29106 -0.04903,-0.58016 -0.141559,-0.85448 z m -5.111217,0.0751 c -0.076867,0.25173 -0.1173394,0.51475 -0.1173394,0.77935 0,0.7055 0.2875202,1.39984 0.7863784,1.8987 0.358411,0.35841 0.817724,0.60774 1.309585,0.71971 H 2.7616347 l 2.7559762,-2.75597 c 0.4848744,0.41983 1.1184076,0.65863 1.7612721,0.65863 0.7054926,0 1.3998049,-0.28748 1.898662,-0.78634 0.1544388,-0.15444 0.2885816,-0.32764 0.400251,-0.51408 z" />
      <path
         style="fill:#f2cc2e;fill-opacity:1;stroke:none;stroke-width:5;stroke-linejoin:round;paint-order:stroke fill markers"
         d="m 11.942115,-365.08394 c -0.381579,-0.0368 -0.805254,-0.19567 -1.124916,-0.4218 -0.152735,-0.10805 -0.408594,-0.36391 -0.516641,-0.51664 -0.113189,-0.16001 -0.247129,-0.42405 -0.3086837,-0.60854 -0.1975981,-0.59222 -0.1531101,-1.18095 0.1320297,-1.74723 0.230167,-0.45711 0.571398,-0.79186 1.035482,-1.01582 0.634887,-0.3064 1.337382,-0.3064 1.97227,0 0.465076,0.22444 0.804933,0.55795 1.035795,1.01644 0.33712,0.66953 0.336992,1.38468 -3.33e-4,2.05427 -0.120396,0.23896 -0.226776,0.38588 -0.417505,0.57661 -0.185438,0.18544 -0.333633,0.29371 -0.563957,0.41203 -0.399246,0.20509 -0.825426,0.291 -1.243507,0.25068 z"
         id="path58091" />
      <path
         style="fill:#f2cc2e;fill-opacity:1;stroke:none;stroke-width:5;stroke-linejoin:round;paint-order:stroke fill markers"
         d="m 16.669157,-362.94837 c -0.904243,-0.15226 -1.646623,-0.83652 -1.851799,-1.70683 -0.0689,-0.29224 -0.06808,-0.79542 0.0017,-1.06925 0.15915,-0.62419 0.618049,-1.19408 1.185011,-1.47161 0.312219,-0.15284 0.683361,-0.25086 0.953885,-0.25192 0.44594,-0.002 1.035011,0.72727 1.231008,1.52347 0.09467,0.38458 0.08609,1.12007 -0.01756,1.50637 -0.160167,0.59692 -0.486792,1.09189 -0.897685,1.36036 -0.233402,0.15251 -0.288936,0.16256 -0.604599,0.10941 z"
         id="path58093" />
      <path
         style="fill:#f2cc2e;fill-opacity:1;stroke:none;stroke-width:5;stroke-linejoin:round;paint-order:stroke fill markers"
         d="m 7.0899477,-363.01242 c -0.4409206,-0.25715 -0.8109126,-0.80175 -0.9791121,-1.44116 -0.1050178,-0.39923 -0.1049511,-1.08989 1.4e-4,-1.48865 0.1229767,-0.4666 0.3314258,-0.84777 0.6212961,-1.13611 0.3408932,-0.33909 0.4339784,-0.37906 0.780395,-0.33514 0.937534,0.11887 1.6626843,0.72871 1.9390865,1.63075 0.063216,0.20631 0.080813,0.3452 0.078586,0.62027 -0.0094,1.16141 -0.8779827,2.0986 -2.0682336,2.23161 -0.1728697,0.0193 -0.2150075,0.0101 -0.3721618,-0.0816 z"
         id="path58095" />
      <path
         style="fill:#f2cc2e;fill-opacity:1;stroke:none;stroke-width:5;stroke-linejoin:round;paint-order:stroke fill markers"
         d="m 5.3000268,-360.30422 v -2.25632 l 0.1329149,0.0223 c 0.9180511,0.15385 1.6695572,0.86626 1.8715488,1.77417 0.2400493,1.07898 -0.3881454,2.20063 -1.4479338,2.58531 -0.1224512,0.0445 -0.2977643,0.0921 -0.3895843,0.10585 l -0.1669456,0.025 z"
         id="path58097" />
      <path
         style="fill:#f2cc2e;fill-opacity:1;stroke:none;stroke-width:5;stroke-linejoin:round;paint-order:stroke fill markers"
         d="m 18.599124,-358.12469 c -0.610477,-0.17455 -1.150955,-0.62026 -1.420939,-1.17179 -0.243624,-0.49769 -0.302205,-0.92699 -0.197292,-1.44584 0.171291,-0.84712 0.822987,-1.52908 1.667672,-1.74511 0.150308,-0.0384 0.286686,-0.0699 0.303062,-0.0699 0.01638,0 0.02978,1.01281 0.02978,2.25069 v 2.2507 l -0.07975,-0.003 c -0.04386,-10e-4 -0.18,-0.0312 -0.302529,-0.0662 z"
         id="path58099" />
      <path
         style="fill:#f2cc2e;fill-opacity:1;stroke:none;stroke-width:5;stroke-linejoin:round;paint-order:stroke fill markers"
         d="m 15.640938,-353.66115 c -0.381043,-0.28111 -0.69466,-0.76005 -0.822837,-1.25659 -0.06995,-0.27097 -0.06995,-0.79517 0,-1.06615 0.122093,-0.47296 0.434591,-0.96493 0.777273,-1.22366 0.108872,-0.0822 0.204892,-0.14251 0.213379,-0.13402 0.0085,0.008 -0.05514,0.15826 -0.141389,0.33282 -0.258369,0.52293 -0.317879,0.81074 -0.318469,1.54022 -4.66e-4,0.53655 0.0104,0.66014 0.08029,0.91575 0.09332,0.3413 0.242124,0.68458 0.394873,0.91091 0.05872,0.087 0.09534,0.15796 0.08138,0.15766 -0.01396,-2.6e-4 -0.132986,-0.0799 -0.2645,-0.17694 z"
         id="path58101" />
      <path
         style="fill:#f2cc2e;fill-opacity:1;stroke:none;stroke-width:5;stroke-linejoin:round;paint-order:stroke fill markers"
         d="m 8.3836528,-353.46733 c 0,-0.0127 0.029879,-0.0655 0.066399,-0.1172 0.3763879,-0.53331 0.5773007,-1.40828 0.5017913,-2.18528 -0.053099,-0.5464 -0.1909261,-1.00065 -0.4230844,-1.39439 -0.059302,-0.10057 -0.098411,-0.18286 -0.086908,-0.18286 0.041379,0 0.3520926,0.24547 0.478838,0.3783 0.2052888,0.21513 0.3998677,0.54699 0.5086277,0.86747 0.086366,0.2545 0.1004381,0.35075 0.1002835,0.68592 -1.334e-4,0.34134 -0.013412,0.42792 -0.1064535,0.69533 -0.1283114,0.36879 -0.3737656,0.74915 -0.6313718,0.9784 -0.193235,0.17196 -0.4081219,0.31639 -0.4081218,0.27431 z"
         id="path58103" />
      <path
         style="fill:#003380;fill-opacity:1;stroke:none;stroke-width:5;stroke-linejoin:round;paint-order:stroke fill markers"
         d="m 6.7443919,-353.21997 c -0.3843787,-0.0932 -0.7276893,-0.2916 -1.038736,-0.60042 -0.3285138,-0.32616 -0.509551,-0.63814 -0.6192853,-1.0672 -0.299798,-1.1722 0.4501242,-2.41172 1.6477231,-2.72348 0.1161873,-0.0302 0.3168125,-0.055 0.445834,-0.055 0.2030593,0 0.2568907,0.0148 0.4005709,0.10994 0.356711,0.23628 0.6855659,0.73878 0.8455922,1.2921 0.069327,0.23971 0.081426,0.36318 0.081426,0.83093 0,0.63589 -0.062306,0.91996 -0.3027401,1.38031 -0.1780865,0.34097 -0.3683201,0.56172 -0.6409594,0.74379 -0.191587,0.12793 -0.2387926,0.14398 -0.4158819,0.14136 -0.1098702,-0.002 -0.2914649,-0.0252 -0.4035438,-0.0523 z"
         id="path58105" />
      <path
         style="fill:#003380;fill-opacity:1;stroke:none;stroke-width:5;stroke-linejoin:round;paint-order:stroke fill markers"
         d="m 4.5025374,-358.12231 c -0.8784498,-0.25327 -1.5197205,-0.99356 -1.6457824,-1.89991 -0.1174765,-0.84463 0.3327118,-1.77604 1.0680655,-2.20976 0.2090689,-0.12331 0.5909878,-0.26609 0.8169638,-0.30543 l 0.1329149,-0.0231 v 2.2523 2.2523 l -0.079749,-0.003 c -0.043862,-10e-4 -0.1754476,-0.0301 -0.2924128,-0.0638 z"
         id="path58107" />
      <path
         style="fill:#003380;fill-opacity:1;stroke:none;stroke-width:5;stroke-linejoin:round;paint-order:stroke fill markers"
         d="m 5.9086633,-363.39133 c -0.6932322,-0.52111 -1.0341917,-1.47039 -0.8237156,-2.29335 0.1181871,-0.4621 0.3679927,-0.87809 0.7078507,-1.17873 0.2902563,-0.25676 0.3388735,-0.25081 0.1847333,0.0226 -0.5309775,0.94196 -0.5087659,2.45072 0.049733,3.3782 0.068547,0.11383 0.118578,0.21302 0.1111812,0.22041 -0.0074,0.007 -0.1107992,-0.0597 -0.2297827,-0.14917 z"
         id="path58109" />
      <path
         style="fill:#003380;fill-opacity:1;stroke:none;stroke-width:5;stroke-linejoin:round;paint-order:stroke fill markers"
         d="m 18.130746,-363.24987 c 0,-0.0127 0.03285,-0.0693 0.073,-0.12563 0.122905,-0.1726 0.308712,-0.60621 0.394642,-0.92095 0.07139,-0.2615 0.08126,-0.37653 0.07887,-0.91918 -0.0023,-0.52207 -0.01501,-0.66515 -0.08024,-0.90382 -0.08076,-0.29546 -0.270599,-0.72859 -0.397373,-0.90663 -0.09669,-0.13578 -0.06212,-0.13061 0.145465,0.0218 0.400248,0.29381 0.754019,0.82379 0.865452,1.29651 0.06868,0.29134 0.06909,0.77376 8.87e-4,1.04297 -0.09947,0.39261 -0.321312,0.78474 -0.59961,1.05985 -0.230378,0.22773 -0.48108,0.41279 -0.48108,0.35511 z"
         id="path58111" />
      <path
         style="fill:#003380;fill-opacity:1;stroke:none;stroke-width:5;stroke-linejoin:round;paint-order:stroke fill markers"
         d="m 19.40673,-360.30664 c 0,-1.23788 0.0134,-2.25069 0.02977,-2.25069 0.01638,0 0.152754,0.0315 0.303063,0.0699 1.156385,0.29575 1.900715,1.44874 1.67223,2.59033 -0.09616,0.48044 -0.292723,0.84695 -0.636183,1.18623 -0.211623,0.20904 -0.358235,0.3187 -0.553672,0.4141 -0.246903,0.12053 -0.625685,0.24083 -0.758301,0.24083 -0.05166,0 -0.05691,-0.20789 -0.05691,-2.2507 z"
         id="path58113" />
      <path
         style="fill:#003380;fill-opacity:1;stroke:none;stroke-width:5;stroke-linejoin:round;paint-order:stroke fill markers"
         d="m 16.783319,-353.29754 c -0.674896,-0.43494 -1.070021,-1.34792 -1.016279,-2.34821 0.04367,-0.81286 0.377138,-1.52168 0.898323,-1.9095 l 0.207122,-0.15412 0.318996,0.0176 c 0.893206,0.0491 1.698278,0.68745 1.977139,1.56756 0.0641,0.2023 0.07843,0.32992 0.07764,0.69116 -8.54e-4,0.38889 -0.01246,0.47483 -0.09496,0.70302 -0.129334,0.35773 -0.290856,0.61575 -0.545025,0.87065 -0.385715,0.38682 -0.880399,0.61645 -1.397068,0.64853 -0.247344,0.0154 -0.27696,0.009 -0.425884,-0.0867 z"
         id="path58115" />
      <path
         style="fill:#003380;fill-opacity:1;stroke:none;stroke-width:5;stroke-linejoin:round;paint-order:stroke fill markers"
         d="m 11.609055,-351.05828 c -0.306558,-0.0802 -0.742686,-0.31242 -0.971985,-0.51749 -0.272201,-0.24344 -0.513639,-0.61678 -0.640133,-0.98986 -0.087047,-0.25674 -0.1008861,-0.3515 -0.1004188,-0.68765 4.667e-4,-0.32509 0.016191,-0.43778 0.094698,-0.67807 0.1177658,-0.36043 0.3724958,-0.75483 0.6458538,-0.99995 0.237084,-0.2126 0.745557,-0.47487 1.035756,-0.53425 0.266245,-0.0545 0.729472,-0.0467 0.999548,0.0168 0.619704,0.14562 1.203482,0.61185 1.484222,1.18535 0.332651,0.67955 0.332651,1.34076 0,2.02031 -0.28074,0.5735 -0.864518,1.03973 -1.484222,1.18535 -0.28648,0.0673 -0.805113,0.0671 -1.063319,-4.9e-4 z"
         id="path58117" />
      <path
         style="fill:#5fbefd;fill-opacity:1;stroke:none;stroke-width:5;stroke-linejoin:round;paint-order:stroke fill markers"
         d="m 9.9349489,-354.90143 c 0.049987,-0.23886 0.026111,-0.96181 -0.039801,-1.20509 -0.1413301,-0.52167 -0.507745,-1.09115 -0.9013393,-1.40085 -0.6138189,-0.48299 -1.3844234,-0.68447 -2.187413,-0.57193 l -0.2126639,0.0298 0.1417759,-0.1043 c 0.2013425,-0.14813 0.4860365,-0.4597 0.6400683,-0.70049 0.2815608,-0.44015 0.4089893,-0.89744 0.4081591,-1.46473 -6.987e-4,-0.47738 -0.084494,-0.81678 -0.3099886,-1.25558 -0.1338098,-0.26038 -0.2313956,-0.39063 -0.4789034,-0.6392 l -0.3108496,-0.31218 0.1675331,0.0265 c 0.276793,0.0438 0.7908933,0.0258 1.0316218,-0.036 0.9683648,-0.24901 1.6445554,-0.86893 1.9568503,-1.79402 0.1014447,-0.3005 0.1140594,-0.38246 0.1172907,-0.76204 0.00199,-0.23393 -0.00887,-0.49521 -0.024126,-0.58062 l -0.027746,-0.15529 0.1386137,0.17301 c 0.808929,1.00968 2.2152,1.28993 3.390389,0.67567 0.210922,-0.11025 0.367502,-0.23135 0.611301,-0.47278 l 0.32775,-0.32457 -0.02648,0.14735 c -0.01456,0.081 -0.02478,0.30684 -0.02271,0.50178 0.01258,1.18556 0.834551,2.2442 1.9811,2.55152 0.286715,0.0768 0.870839,0.10667 1.131348,0.0578 0.115392,-0.0217 0.214727,-0.0345 0.220744,-0.0285 0.006,0.006 -0.07133,0.0737 -0.171874,0.15036 -0.22488,0.17149 -0.517042,0.52084 -0.660025,0.78921 -0.378227,0.70991 -0.429796,1.58238 -0.136455,2.30862 0.145639,0.36056 0.310985,0.60617 0.61504,0.91357 l 0.289897,0.29309 -0.148121,-0.0266 c -0.252881,-0.0454 -0.807535,-0.024 -1.069666,0.0413 -0.335545,0.0836 -0.843324,0.3382 -1.081914,0.54245 -0.446735,0.38243 -0.780597,0.91499 -0.906087,1.44536 -0.06585,0.2783 -0.08302,0.77876 -0.03766,1.09751 l 0.03008,0.21142 -0.14016,-0.17732 c -0.414362,-0.52421 -1.050978,-0.87514 -1.769312,-0.97533 -0.913917,-0.12747 -1.92303,0.29889 -2.4831013,1.04915 l -0.079127,0.10599 z"
         id="path58119" />
      <path
         style="fill:#5fbefd;fill-opacity:1;stroke:none;stroke-width:5;stroke-linejoin:round;paint-order:stroke fill markers"
         d="m 2.5017995,-355.25593 0.00185,-4.27094 0.074762,0.19494 c 0.1663049,0.43365 0.4306955,0.80676 0.7722001,1.08974 0.2689151,0.22283 0.7705831,0.48027 1.0987633,0.56383 0.2565875,0.0653 0.8310109,0.0827 1.1342073,0.0344 l 0.1949417,-0.0311 -0.1789722,0.14151 c -0.4508031,0.35642 -0.8292939,0.96154 -0.9524242,1.52268 -0.1586259,0.72291 0.00907,1.56659 0.4270335,2.14836 l 0.1268295,0.17654 -1.3505172,1.35052 -1.3505172,1.35051 z"
         id="path58121" />
      <path
         style="fill:#5fbefd;fill-opacity:1;stroke:none;stroke-width:5;stroke-linejoin:round;paint-order:stroke fill markers"
         d="m 2.5024501,-365.35734 -0.0025,-4.27094 1.3482776,1.34827 1.3482775,1.34828 -0.1613886,0.24572 c -0.5332514,0.81189 -0.5952751,1.8517 -0.1627602,2.72865 0.1652044,0.33495 0.4071329,0.64472 0.6721777,0.86067 l 0.191344,0.15589 -0.2090659,-0.0284 c -1.3106893,-0.17809 -2.5282209,0.53838 -2.9729049,1.74945 -0.042144,0.11478 -0.04931,-0.46144 -0.05146,-4.13759 z"
         id="path58123" />
      <path
         style="fill:#5fbefd;fill-opacity:1;stroke:none;stroke-width:5;stroke-linejoin:round;paint-order:stroke fill markers"
         d="m 9.2877664,-366.97979 c -0.7579214,-0.83317 -1.9194754,-1.12085 -2.9537512,-0.73155 -0.257223,0.0968 -0.5614953,0.26308 -0.7097252,0.3878 l -0.09874,0.0831 -1.3619891,-1.36233 -1.361989,-1.36234 4.3062707,6e-4 4.3062704,6e-4 -0.283552,0.1153 c -0.766828,0.31183 -1.32106,0.92497 -1.5767048,1.74432 -0.091964,0.29474 -0.1311081,0.86906 -0.078512,1.15193 0.019936,0.10721 0.03367,0.19744 0.030521,0.20049 -0.00315,0.003 -0.1012934,-0.0995 -0.2180982,-0.22791 z"
         id="path58125" />
      <path
         style="fill:#5fbefd;fill-opacity:1;stroke:none;stroke-width:5;stroke-linejoin:round;paint-order:stroke fill markers"
         d="m 14.827,-367.22962 c 0.01376,-0.38117 0.0045,-0.49898 -0.05941,-0.75195 -0.229478,-0.90892 -0.855287,-1.60691 -1.714604,-1.91237 -0.182999,-0.065 -0.123788,-0.066 4.120601,-0.0686 l 4.306269,-0.003 -1.346522,1.34687 c -0.740586,0.74078 -1.358526,1.34687 -1.373197,1.34687 -0.01467,0 -0.103834,-0.0554 -0.198138,-0.12318 -1.072462,-0.77049 -2.63612,-0.60012 -3.539378,0.38562 l -0.21194,0.2313 z"
         id="path58127" />
      <path
         style="fill:#5fbefd;fill-opacity:1;stroke:none;stroke-width:5;stroke-linejoin:round;paint-order:stroke fill markers"
         d="m 21.746033,-361.18454 c 0,-0.0247 -0.06009,-0.1643 -0.133534,-0.31014 -0.519264,-1.03112 -1.561321,-1.60412 -2.702544,-1.48606 -0.181318,0.0188 -0.33509,0.0287 -0.341716,0.0221 -0.0066,-0.007 0.06085,-0.0644 0.149936,-0.12837 0.375805,-0.26988 0.793598,-0.93629 0.923389,-1.47286 0.08569,-0.35427 0.07786,-0.94735 -0.01722,-1.30387 -0.07779,-0.29168 -0.313322,-0.7803 -0.460375,-0.95507 l -0.0877,-0.10423 1.352604,-1.3526 1.352605,-1.3526 v 4.24435 c 0,2.3344 -0.008,4.24436 -0.01772,4.24436 -0.0097,0 -0.01772,-0.0202 -0.01772,-0.045 z"
         id="path58129" />
      <path
         style="fill:#5fbefd;fill-opacity:1;stroke:none;stroke-width:5;stroke-linejoin:round;paint-order:stroke fill markers"
         d="m 20.421268,-352.34508 -1.342134,-1.34248 0.149202,-0.21971 c 0.493758,-0.72709 0.613805,-1.62938 0.325267,-2.44475 -0.144768,-0.4091 -0.303511,-0.65487 -0.650686,-1.00743 -0.214428,-0.21775 -0.283948,-0.3074 -0.227362,-0.2932 0.20998,0.0527 0.604831,0.0634 0.877579,0.0238 0.970796,-0.14102 1.774345,-0.76256 2.142095,-1.6569 l 0.08456,-0.20565 8.46e-4,4.24441 c 4.67e-4,2.33443 -0.0032,4.24442 -0.0082,4.24442 -0.005,0 -0.612996,-0.60412 -1.351172,-1.34249 z"
         id="path58131" />
      <path
         style="fill:#5fbefd;fill-opacity:1;stroke:none;stroke-width:5;stroke-linejoin:round;paint-order:stroke fill markers"
         d="m 13.150868,-350.74872 c 1.020082,-0.40343 1.685366,-1.39237 1.682743,-2.50137 -4.67e-4,-0.1967 -0.01553,-0.42099 -0.03348,-0.49842 -0.01795,-0.0774 -0.02854,-0.14487 -0.02354,-0.14988 0.005,-0.005 0.07888,0.0743 0.164168,0.17623 0.243512,0.29103 0.522537,0.50914 0.86841,0.67882 0.432784,0.21232 0.725739,0.28065 1.205095,0.28109 0.567803,5.3e-4 1.069184,-0.15236 1.533193,-0.46746 l 0.209361,-0.14217 1.361521,1.36186 1.36152,1.36187 -4.288548,-0.001 -4.288548,-10e-4 z"
         id="path58133" />
      <path
         style="fill:#5fbefd;fill-opacity:1;stroke:none;stroke-width:5;stroke-linejoin:round;paint-order:stroke fill markers"
         d="m 4.1480976,-351.99502 c 0.7405868,-0.74078 1.3602474,-1.34688 1.3770236,-1.34688 0.016776,0 0.079182,0.041 0.1386787,0.091 0.1681749,0.14151 0.644656,0.36736 0.9430616,0.44701 0.3497611,0.0934 0.9471503,0.10089 1.2944845,0.0163 0.536405,-0.13059 1.1232562,-0.48968 1.4331358,-0.87694 0.090172,-0.11269 0.1669101,-0.20184 0.1705295,-0.19812 0.00362,0.004 -0.00973,0.0945 -0.029667,0.2017 -0.046057,0.2477 -0.01359,0.83996 0.061206,1.11648 0.2248135,0.83116 0.8806237,1.53822 1.7087727,1.8423 0.11477,0.0421 -0.464067,0.0493 -4.1552002,0.0515 l -4.2885463,0.002 z"
         id="path58135" />
    </g>
  </g>
</svg>
