<?xml version="1.0" encoding="UTF-8" standalone="no"?>
<svg
   xmlns:dc="http://purl.org/dc/elements/1.1/"
   xmlns:cc="http://creativecommons.org/ns#"
   xmlns:rdf="http://www.w3.org/1999/02/22-rdf-syntax-ns#"
   xmlns:svg="http://www.w3.org/2000/svg"
   xmlns="http://www.w3.org/2000/svg"
   width="210mm"
   height="297mm"
   viewBox="0 0 210 297"
   version="1.1"
   id="svg233">
  <defs
     id="defs227" />
  <metadata
     id="metadata230">
    <rdf:RDF>
      <cc:Work
         rdf:about="">
        <dc:format>image/svg+xml</dc:format>
        <dc:type
           rdf:resource="http://purl.org/dc/dcmitype/StillImage" />
        <dc:title></dc:title>
      </cc:Work>
    </rdf:RDF>
  </metadata>
  <g
     id="layer1">
    <path
       id="rect15662"
       style="fill:#666666;fill-opacity:1;fill-rule:evenodd;stroke:none;stroke-width:0.175249px;stroke-linecap:butt;stroke-linejoin:miter;stroke-opacity:1"
       d="M -3.1667319,34.166907 V 262.16643 H 214.8334 V 34.166907 Z m 8.0005459,8.00003 H 44.833439 V 82.167078 H 4.833814 Z m 47.999654,0 H 158.8332 V 82.167078 H 52.833468 Z m 114.000272,0 h 39.99963 V 82.167078 H 166.83374 Z M 52.833468,90.166588 H 158.8332 v 5.64e-4 39.999628 l -0.001,5.6e-4 h 0.001 l -52.99987,33.99938 -52.999862,-33.99947 h 0.0011 l -0.0011,-5.7e-4 V 90.167107 Z m -47.999654,5.64e-4 h 39.999625 v 115.999638 5.6e-4 H 4.833814 v -5.6e-4 z m 161.999926,0 h 39.99963 V 206.16674 H 166.83374 Z M 52.833468,139.22509 101.83306,172.16624 v 5.6e-4 h 5.1e-4 v 81.99965 h -5.1e-4 -48.999592 v -81.99965 -5.6e-4 -32.94063 z m 105.999732,0 v 5.7e-4 32.94063 5.6e-4 h 5.6e-4 v 81.99964 h -5.6e-4 -48.9996 v -81.99964 -5.6e-4 h 5.2e-4 z M 4.833814,214.16677 h 39.999625 v 40.00014 H 4.833814 Z m 161.999926,0 h 39.99963 v 40.00014 h -39.99963 z" />
  </g>
</svg>
