<?xml version="1.0" encoding="UTF-8" standalone="no"?>
<svg
   xmlns:dc="http://purl.org/dc/elements/1.1/"
   xmlns:cc="http://creativecommons.org/ns#"
   xmlns:rdf="http://www.w3.org/1999/02/22-rdf-syntax-ns#"
   xmlns:svg="http://www.w3.org/2000/svg"
   xmlns="http://www.w3.org/2000/svg"
   width="210mm"
   height="297mm"
   viewBox="0 0 210 297"
   version="1.1"
   id="svg233">
  <defs
     id="defs227" />
  <metadata
     id="metadata230">
    <rdf:RDF>
      <cc:Work
         rdf:about="">
        <dc:format>image/svg+xml</dc:format>
        <dc:type
           rdf:resource="http://purl.org/dc/dcmitype/StillImage" />
        <dc:title></dc:title>
      </cc:Work>
    </rdf:RDF>
  </metadata>
  <g
     id="layer1">
    <path
       id="rect15662"
       style="fill:#666666;fill-opacity:1;fill-rule:evenodd;stroke:none;stroke-width:0.175249px;stroke-linecap:butt;stroke-linejoin:miter;stroke-opacity:1"
       d="M -3.1667319 34.166907 v 227.99952299999998 h 218.0001319 v -227.99952299999998 Z M 4.833814 42.166937000000004 h 39.999624999999995 v 40.000141 h -39.999624999999995 Z M 52.833467999999996 42.166937000000004 h 105.99973200000001 v 40.000141 h -105.999732 Z M 166.83373999999998 42.166937000000004 h 39.999629999999996 v 40.000141 h -39.99962999999997 Z M 52.833468 90.166588 h 105.999732 v 0.0005639999999971224 v 39.999628000000016 l -0.0010000000000047748 0.0005600000000072214 h 0.0010000000000047748 l -52.99987 33.99938 l -52.999862 -33.99947 h 0.001100000000000989 l -0.001100000000000989 -0.0005700000000103955 v -39.99957300000001 Z M 4.833814000000004 90.167152 h 39.999625 v 115.99963799999999 v 0.0005600000000072214 h -39.99962500000001 v -0.0005600000000072214 Z M 166.83373999999998 90.167152 h 39.999629999999996 v 115.999588 h -39.99962999999997 Z M 52.833468 139.22509 l 48.999592 32.94114999999999 v 0.0005600000000072214 h 0.0005100000000055616 v 81.99965 h -0.0005100000000055616 h -48.999592 v -81.99965 v -0.0005600000000072214 v -32.94063 Z M 158.8332 139.22509 v 0.0005700000000103955 v 32.94063 v 0.0005600000000072214 h 0.0005600000000072214 v 81.99964 h -0.0005600000000072214 h -48.9996 v -81.99964 v -0.0005600000000072214 h 0.0005199999999945248 Z M 4.833814 214.16677 h 39.999624999999995 v 40.000140000000016 h -39.999624999999995 Z M 166.83373999999998 214.16677 h 39.999629999999996 v 40.000140000000016 h -39.999629999999996 Z" />
  </g>
</svg>
