<?xml version="1.0" standalone="no"?>
<!DOCTYPE svg PUBLIC "-//W3C//DTD SVG 1.1//EN"
 "http://www.w3.org/Graphics/SVG/1.1/DTD/svg11.dtd">
<!-- Created with svg_stack (http://github.com/astraw/svg_stack) -->
<svg xmlns="http://www.w3.org/2000/svg" xmlns:sodipodi="http://sodipodi.sourceforge.net/DTD/sodipodi-0.dtd" xmlns:dc="http://purl.org/dc/elements/1.1/" xmlns:cc="http://creativecommons.org/ns#" xmlns:rdf="http://www.w3.org/1999/02/22-rdf-syntax-ns#" xmlns:inkscape="http://www.inkscape.org/namespaces/inkscape" version="1.1" width="793.7007874015749" height="5612.598425196851">
  <defs/>
  <g id="id0:id0" transform="matrix(3.7795275590551185,0,0,3.7795275590551185,0.0,0.0)"><g id="id0:layer1">
    <path id="id0:rect25248" d="M -3.1667375 34.1668 v 227.99973000000003 h 218.00013750000002 v -227.99973000000003 Z M 4.833602300000001 42.167137000000004 h 40.000039699999995 v 163.999783 h -40.000039699999995 Z M 52.833429 42.167137000000004 h 48.999731000000004 v 130.999623 l -48.999731 33.000159999999994 v -33.000159999999994 Z M 109.8335 42.167137000000004 h 49.00027999999999 v 130.999623 h -0.0005600000000072214 v 33.000159999999994 l -48.99971999999998 -33.000159999999994 Z M 166.83357 42.167137000000004 h 40.00004000000001 v 163.999783 h -40.00004000000001 Z M 105.83333000000002 180.16664 l 52.9999 34.00005999999999 v 40.00004000000001 h -105.99980100000002 v -40.00004000000001 Z M 4.8170641 214.1667 h 39.9994889 v 40.00004000000001 h -39.9994889 Z M 166.83302 214.1667 h 40.000039999999984 v 40.00004000000001 h -40.00004000000001 Z" style="fill:#666666;fill-rule:evenodd;stroke:none;stroke-width:0.282222px;stroke-linecap:butt;stroke-linejoin:miter;stroke-opacity:1"/>
  </g>
</g>
  <g id="id1:id1" transform="matrix(3.7795275590551185,0,0,3.7795275590551185,0.0,1122.5196850393702)"><g id="id1:layer1">
    <path id="id1:rect196" style="fill:#666666;fill-rule:evenodd;stroke-width:0.264583" d="M -1.6548343 28.119286 v 227.99951400000003 h 218.0001343 v -227.99951400000003 Z M 54.345366 36.118797 h 48.999594 v 212.000493 h -48.999594 Z M 111.34497999999999 36.118797 h 49.00012000000001 v 48.059081000000006 v 32.941142 v 131.00027 h -49.000119999999995 v -131.00027 Z M 6.3451957 36.119326 h 40.0001503 v 211.999964 h -40.0001503 Z M 168.34512 36.119326 h 40.00014999999999 v 211.999964 h -40.00014999999999 Z"/>
  </g>
</g>
  <g id="id2:id2" transform="matrix(3.7795275590551185,0,0,3.7795275590551185,0.0,2245.0393700787404)"><sodipodi:namedview id="base" pagecolor="#ffffff" bordercolor="#666666" borderopacity="1.0" inkscape:pageopacity="0.0" inkscape:pageshadow="2" inkscape:zoom="0.33456693" inkscape:cx="400" inkscape:cy="560" inkscape:document-units="mm" inkscape:current-layer="layer1" inkscape:document-rotation="0" showgrid="false" inkscape:window-width="1252" inkscape:window-height="795" inkscape:window-x="0" inkscape:window-y="25" inkscape:window-maximized="0"/>
  <g inkscape:label="Layer 1" inkscape:groupmode="layer" id="id2:layer1">
    <path id="id2:rect16162" style="fill:#666666;fill-opacity:1;fill-rule:evenodd;stroke:none;stroke-width:0.662358px;stroke-linecap:butt;stroke-linejoin:miter;stroke-opacity:1" d="M -11.96875 129.13477 l 0 861.73046 l 823.9375 0 l 0 -861.73046 l -823.9375 0 Z M 199.68555 159.36914 l 400.62889999999993 0 l 0 151.18164 l 0 0.0019500000000221007 l -200.31444999999997 128.50391000000002 l -200.31445 -128.50391000000002 l 0 -0.0019500000000221007 l 0 -151.18164 Z M 630.55273 159.36914 l 151.17969000000005 0 l 0 801.26172 l -151.17969000000005 0 l 0 -801.26172 Z M 18.261719 159.45508 l 151.181641 0 l 0 801.2578100000001 l -151.181641 0 l 0 -801.2578100000001 Z M 199.68555 341.01172 l 185.19530999999998 124.5 l 0 0.0019499999999652573 l 0 495.11524000000003 l -185.19530999999998 0 l 0 -495.11524000000003 l 0 -0.0019499999999652573 l 0 -124.5 Z M 600.31445 341.01172 l 0 124.5 l 0 0.0019499999999652573 l 0 495.11524000000003 l -185.19530999999995 0 l 0 -495.11524000000003 l 0 -0.0019499999999652573 l 185.19530999999995 -124.5 Z" transform="scale(0.26458333)"/>
  </g>
</g>
  <g id="id3:id3" transform="matrix(3.7795275590551185,0,0,3.7795275590551185,0.0,3367.5590551181103)"><g id="id3:layer1">
    <path id="id3:rect15884" style="fill:#666666;fill-opacity:1;fill-rule:evenodd;stroke:none;stroke-width:0.175249px;stroke-linecap:butt;stroke-linejoin:miter;stroke-opacity:1" d="M -3.1667317 34.166907 v 227.999513 h 218.00013170000003 v -227.999513 Z M 52.833467 42.166419 h 105.999723 v 40.000142000000004 v 0.0005149999999929378 l -52.99986 33.999994 l -52.999863000000005 -33.999994 v -0.0005149999999929378 Z M 4.8338133 42.166935 h 39.9996247 v 163.999805 h -39.9996247 Z M 166.83374 42.166935 h 39.999629999999996 v 163.999805 h -39.999629999999996 Z M 52.833467 90.225502 l 48.999593000000004 32.941137999999995 v 0.0005199999999945248 v 130.99924 h -48.999593000000004 v -130.99924 v -0.0005199999999945248 Z M 158.83319 90.225502 v 32.941137999999995 v 0.0005199999999945248 v 130.99924 h -48.99959 v -130.99924 v -0.0005199999999945248 h 0.0005199999999945248 Z M 4.8338133 214.16677 h 39.9996247 v 40.000140000000016 h -39.9996247 Z M 166.83374 214.16677 h 39.999629999999996 v 40.000140000000016 h -39.999629999999996 Z"/>
  </g>
</g>
  <g id="id4:id4" transform="matrix(3.7795275590551185,0,0,3.7795275590551185,0.0,4490.078740157481)"><g id="id4:layer1">
    <path id="id4:rect15662" style="fill:#666666;fill-opacity:1;fill-rule:evenodd;stroke:none;stroke-width:0.175249px;stroke-linecap:butt;stroke-linejoin:miter;stroke-opacity:1" d="M -3.1667319 34.166907 v 227.99952299999998 h 218.0001319 v -227.99952299999998 Z M 4.833814 42.166937000000004 h 39.999624999999995 v 40.000141 h -39.999624999999995 Z M 52.833467999999996 42.166937000000004 h 105.99973200000001 v 40.000141 h -105.999732 Z M 166.83373999999998 42.166937000000004 h 39.999629999999996 v 40.000141 h -39.99962999999997 Z M 52.833468 90.166588 h 105.999732 v 0.0005639999999971224 v 39.999628000000016 l -0.0010000000000047748 0.0005600000000072214 h 0.0010000000000047748 l -52.99987 33.99938 l -52.999862 -33.99947 h 0.001100000000000989 l -0.001100000000000989 -0.0005700000000103955 v -39.99957300000001 Z M 4.833814000000004 90.167152 h 39.999625 v 115.99963799999999 v 0.0005600000000072214 h -39.99962500000001 v -0.0005600000000072214 Z M 166.83373999999998 90.167152 h 39.999629999999996 v 115.999588 h -39.99962999999997 Z M 52.833468 139.22509 l 48.999592 32.94114999999999 v 0.0005600000000072214 h 0.0005100000000055616 v 81.99965 h -0.0005100000000055616 h -48.999592 v -81.99965 v -0.0005600000000072214 v -32.94063 Z M 158.8332 139.22509 v 0.0005700000000103955 v 32.94063 v 0.0005600000000072214 h 0.0005600000000072214 v 81.99964 h -0.0005600000000072214 h -48.9996 v -81.99964 v -0.0005600000000072214 h 0.0005199999999945248 Z M 4.833814 214.16677 h 39.999624999999995 v 40.000140000000016 h -39.999624999999995 Z M 166.83373999999998 214.16677 h 39.999629999999996 v 40.000140000000016 h -39.999629999999996 Z"/>
  </g>
</g>
</svg>
