<?xml version="1.0" encoding="UTF-8" standalone="no"?>
<!-- Created with Inkscape (http://www.inkscape.org/) -->

<svg
   width="200.00002mm"
   height="1000mm"
   viewBox="0 0 200.00002 1000"
   version="1.1"
   id="svg5"
   inkscape:version="1.1.2 (b8e25be8, 2022-02-05)"
   sodipodi:docname="1_7togetherV2.svg"
   xmlns:inkscape="http://www.inkscape.org/namespaces/inkscape"
   xmlns:sodipodi="http://sodipodi.sourceforge.net/DTD/sodipodi-0.dtd"
   xmlns="http://www.w3.org/2000/svg"
   xmlns:svg="http://www.w3.org/2000/svg">
  <sodipodi:namedview
     id="namedview7"
     pagecolor="#ffffff"
     bordercolor="#666666"
     borderopacity="1.0"
     inkscape:pageshadow="2"
     inkscape:pageopacity="0.0"
     inkscape:pagecheckerboard="0"
     inkscape:document-units="mm"
     showgrid="false"
     inkscape:zoom="0.10205013"
     inkscape:cx="573.24767"
     inkscape:cy="3013.2249"
     inkscape:window-width="1312"
     inkscape:window-height="969"
     inkscape:window-x="220"
     inkscape:window-y="23"
     inkscape:window-maximized="0"
     inkscape:current-layer="layer1"
     fit-margin-top="0"
     fit-margin-left="0"
     fit-margin-right="0"
     fit-margin-bottom="0" />
  <defs
     id="defs2" />
  <g
     inkscape:label="Layer 1"
     inkscape:groupmode="layer"
     id="layer1"
     transform="translate(205.98788,106.35372)">
    <path
       id="rect25248"
       d="m -205.98788,693.64626 v 200 h 200 v -200 z m 7.33974,7.01785 h 36.69728 v 143.85964 h -36.69727 z m 44.03652,0 h 44.95385 v 114.91208 l -44.95385,28.94756 v -28.94756 z m 52.29363,0 h 44.95433 v 114.91208 h -5.1e-4 v 28.94756 l -44.95382,-28.94756 z m 52.2936,0 h 36.69727 v 143.85964 h -36.69727 z m -55.96349,121.05233 48.62375,29.82466 v 35.08778 h -97.24749 V 851.5411 Z m -92.67542,29.82466 h 36.69677 v 35.08778 h -36.69677 z m 148.6384,0 h 36.69727 v 35.08778 H -50.0249 Z"
       style="fill:#666666;fill-rule:evenodd;stroke:none;stroke-width:0.253179px;stroke-linecap:butt;stroke-linejoin:miter;stroke-opacity:1" />
    <path
       id="rect196"
       style="fill:#666666;fill-rule:evenodd;stroke-width:0.237355"
       d="m -205.98788,493.64626 v 200 h 200 v -200 z m 51.37629,7.01713 h 44.95375 v 185.96574 h -44.95375 z m 52.2932,0 h 44.95422 v 42.15713 28.89583 114.91278 h -44.95422 V 571.71635 Z m -96.33004,4.7e-4 h 36.69739 v 185.96527 h -36.69739 z m 148.62371,0 h 36.69739 v 185.96527 h -36.69739 z" />
    <path
       id="rect16162"
       style="fill:#666666;fill-opacity:1;fill-rule:evenodd;stroke:none;stroke-width:0.157213px;stroke-linecap:butt;stroke-linejoin:miter;stroke-opacity:1"
       d="m -205.98788,293.64626 v 200 H -5.98787 v -200 z m 51.37631,7.01713 h 97.2474 v 35.08792 4.8e-4 l -48.62371,29.82462 -48.62369,-29.82466 v -4.7e-4 z m 104.58734,0 h 36.69687 v 185.96574 h -36.69687 z m -148.6256,0.0218 h 36.69736 v 185.96489 h -36.69736 z m 44.03826,42.1377 44.95372,28.89535 v 4.7e-4 114.91186 h -44.95372 v -114.91186 -4.7e-4 z m 97.2474,0 v 28.89535 4.7e-4 114.91186 h -44.95374 v -114.91186 -4.7e-4 z" />
    <path
       id="rect15884"
       style="fill:#666666;fill-opacity:1;fill-rule:evenodd;stroke:none;stroke-width:0.157213px;stroke-linecap:butt;stroke-linejoin:miter;stroke-opacity:1"
       d="m -205.98787,93.64627 v 199.99999 h 200 V 93.64627 Z m 51.37629,7.01713 h 97.24742 v 35.08793 4.4e-4 l -48.62371,29.82462 -48.62371,-29.82462 v -4.4e-4 z m -44.03633,4.7e-4 h 36.69688 v 143.85977 h -36.69688 z m 148.62368,0 h 36.69691 v 143.85977 h -36.69691 z m -104.58735,42.15673 44.95375,28.89579 v 4.4e-4 114.91187 h -44.95375 v -114.91187 -4.4e-4 z m 97.24742,0 v 28.89579 4.4e-4 114.91187 h -44.95375 v -114.91187 -4.4e-4 h 4.8e-4 z m -141.28375,108.72061 h 36.69688 v 35.08793 h -36.69688 z m 148.62368,0 h 36.69691 v 35.08793 h -36.69691 z" />
    <path
       id="rect15662"
       style="fill:#666666;fill-opacity:1;fill-rule:evenodd;stroke:none;stroke-width:0.157213px;stroke-linecap:butt;stroke-linejoin:miter;stroke-opacity:1"
       d="M -205.98787,-106.35372 V 93.64627 H -5.9878739 v -199.99999 z m 7.33993,7.017579 h 36.6969 v 35.08792 h -36.6969 z m 44.03636,0 h 97.247396 v 35.08792 h -97.247396 z m 104.587346,0 h 36.69691 v 35.08792 h -36.69691 z m -104.587346,42.10505 h 97.247396 v 5e-4 35.08747 l -9e-4,4.9e-4 h 9e-4 l -48.623696,29.8240853 -48.6237,-29.8241653 h 9.3e-4 l -9.3e-4,-5e-4 v -35.08742 z m -44.03636,5e-4 h 36.6969 v 101.754295 4.9e-4 h -36.6969 v -4.9e-4 z m 148.623706,0 h 36.69691 V 44.523644 h -36.69691 z m -104.587346,43.033371 44.95374,28.895804 v 5.1e-4 h 4.7e-4 V 86.62872 h -4.7e-4 -44.95374 v -71.929626 -5.1e-4 -28.895349 z m 97.247396,0 v 4.98e-4 28.895356 4.9e-4 h 5.4e-4 V 86.62879 h -5.4e-4 -44.953726 v -71.929666 -4.9e-4 h 4.9e-4 z M -198.64794,51.541224 h 36.6969 V 86.62917 h -36.6969 z m 148.623706,0 h 36.69691 V 86.62917 h -36.69691 z" />
  </g>
</svg>
