<?xml version="1.0" encoding="UTF-8" standalone="no"?>
<svg
   xmlns:dc="http://purl.org/dc/elements/1.1/"
   xmlns:cc="http://creativecommons.org/ns#"
   xmlns:rdf="http://www.w3.org/1999/02/22-rdf-syntax-ns#"
   xmlns:svg="http://www.w3.org/2000/svg"
   xmlns="http://www.w3.org/2000/svg"
   width="210mm"
   height="297mm"
   viewBox="0 0 210 297"
   version="1.1"
   id="svg34">
  <defs
     id="defs28" />
  <metadata
     id="metadata31">
    <rdf:RDF>
      <cc:Work
         rdf:about="">
        <dc:format>image/svg+xml</dc:format>
        <dc:type
           rdf:resource="http://purl.org/dc/dcmitype/StillImage" />
        <dc:title></dc:title>
      </cc:Work>
    </rdf:RDF>
  </metadata>
  <g
     id="layer1">
    <path
       id="rect5301"
       d="M -3.1667353 38.912085 v 227.999735 h 218.0001353 v -227.999735 Z M 4.8330522 46.911873 h 97.00010780000001 v 40.000038 h -97.00010780000001 Z M 109.8335 46.911873 h 96.99955999999999 v 40.000038 h -96.99955999999999 Z M 4.8330522 94.912251 h 24.0004658 v 40.00004899999999 h -24.0004658 Z M 36.833304 94.912251 h 31.999702999999997 v 40.00004899999999 h -31.999702999999997 Z M 76.833344 94.912251 h 23.999916 v 40.00004899999999 h -23.999916 Z M 109.83349999999999 94.912251 h 23.99991 v 40.00004899999999 h -23.999909999999986 Z M 141.83319999999998 94.912251 h 32.00026 v 40.00004899999999 h -32.00025999999997 Z M 181.83324 94.912251 h 23.999920000000003 v 40.00004899999999 h -23.999920000000003 Z M 4.8330522 142.91209 h 63.9999548 v 115.99994000000001 h -63.9999548 Z M 76.833344 142.91209 h 23.999916 v 62.000140000000016 h -23.999916 Z M 109.83349999999999 142.91209 h 23.99991 v 62.000140000000016 h -23.999909999999986 Z M 141.83319999999998 142.91209 h 63.99995999999999 v 115.99994000000001 h -63.99995999999996 Z M 76.83334399999998 210.91221000000002 h 23.999916 v 47.99982 h -23.999915999999985 Z M 109.83349999999999 210.91221000000002 h 23.99991 v 47.99982 h -23.999909999999986 Z"
       style="fill:#666666;fill-rule:evenodd;stroke:none;stroke-width:0.282222px;stroke-linecap:butt;stroke-linejoin:miter;stroke-opacity:1" />
  </g>
</svg>
