<?xml version="1.0" encoding="UTF-8" standalone="no"?>
<!-- Created with Inkscape (http://www.inkscape.org/) -->

<svg
   width="200.00002mm"
   height="971.93054mm"
   viewBox="0 0 200.00002 971.93054"
   version="1.1"
   id="svg5"
   inkscape:version="1.1.2 (b8e25be8, 2022-02-05)"
   sodipodi:docname="1_8togetherV1.svg"
   xmlns:inkscape="http://www.inkscape.org/namespaces/inkscape"
   xmlns:sodipodi="http://sodipodi.sourceforge.net/DTD/sodipodi-0.dtd"
   xmlns="http://www.w3.org/2000/svg"
   xmlns:svg="http://www.w3.org/2000/svg">
  <sodipodi:namedview
     id="namedview7"
     pagecolor="#ffffff"
     bordercolor="#666666"
     borderopacity="1.0"
     inkscape:pageshadow="2"
     inkscape:pageopacity="0.0"
     inkscape:pagecheckerboard="0"
     inkscape:document-units="mm"
     showgrid="false"
     inkscape:zoom="0.10205013"
     inkscape:cx="573.24767"
     inkscape:cy="2885.8365"
     inkscape:window-width="1312"
     inkscape:window-height="969"
     inkscape:window-x="379"
     inkscape:window-y="23"
     inkscape:window-maximized="0"
     inkscape:current-layer="layer1"
     fit-margin-top="0"
     fit-margin-left="0"
     fit-margin-right="0"
     fit-margin-bottom="0" />
  <defs
     id="defs2" />
  <g
     inkscape:label="Layer 1"
     inkscape:groupmode="layer"
     id="layer1"
     transform="translate(206.09541,71.88273)">
    <path
       id="rect4767"
       d="m -206.09541,700.04779 v 200 h 200 v -200 z m 7.33926,7.01737 h 58.71554 v 80.70183 h -58.71554 z m 66.05526,0 h 22.01824 v 80.70183 h -22.01824 z m 31.19272,0 h 22.01824 v 80.70183 h -22.01824 z m 29.3575,0 h 58.71545 v 80.70183 h -58.71545 z m -126.60548,87.71973 h 88.99083 v 42.10513 h -88.99083 z m 96.33065,0 h 88.99028 v 42.10513 h -88.99028 z m -96.33065,49.1225 h 185.32093 v 49.12303 h -185.32093 z"
       style="fill:#666666;fill-rule:evenodd;stroke:none;stroke-width:0.253178px;stroke-linecap:butt;stroke-linejoin:miter;stroke-opacity:1" />
    <path
       id="rect4843"
       d="m -206.0954,514.08253 v 200 H -6.095398 v -200 z m 7.33925,7.01737 h 58.71551 v 185.96526 h -58.71551 z m 66.05526,0 h 22.01826 v 185.96526 h -22.01826 z m 30.27536,0 h 22.018262 v 185.96526 h -22.018262 z m 29.357512,0 h 58.71551 v 185.96526 h -58.71551 z"
       style="fill:#666666;fill-rule:evenodd;stroke:none;stroke-width:0.253178px;stroke-linecap:butt;stroke-linejoin:miter;stroke-opacity:1" />
    <path
       id="rect4843-4"
       d="m -206.09541,328.11727 v 200 H -6.0954 v -200 z m 7.33926,7.01737 h 58.71551 V 521.0999 h -58.71551 z m 66.05526,0 h 22.01826 V 521.0999 h -22.01826 z m 30.27536,0 h 22.01826 V 521.0999 h -22.01826 z m 29.35751,0 h 58.71551 V 521.0999 h -58.71551 z"
       style="fill:#666666;fill-rule:evenodd;stroke:none;stroke-width:0.253178px;stroke-linecap:butt;stroke-linejoin:miter;stroke-opacity:1" />
    <path
       id="rect5301"
       d="m -206.09541,128.11727 v 200 h 200 v -200 z m 7.33925,7.0173 h 88.99085 v 35.0878 h -88.99085 z m 96.33065,0 h 88.9904 v 35.0878 h -88.9904 z m -96.33065,42.1057 h 22.01885 v 35.0878 h -22.01885 z m 29.35795,0 h 29.3575 v 35.0878 h -29.3575 z m 36.6974,0 h 22.0182 v 35.0878 h -22.0182 z m 30.2753,0 h 22.0182 v 35.0878 h -22.0182 z m 29.3575,0 h 29.358 v 35.0878 h -29.358 z m 36.6973,0 h 22.0182 v 35.0878 h -22.0182 z m -162.38545,42.1052 h 58.71545 v 101.7544 h -58.71545 z m 66.05535,0 h 22.0182 v 54.3861 h -22.0182 z m 30.2753,0 h 22.0182 v 54.3861 h -22.0182 z m 29.3575,0 h 58.7155 v 101.7544 h -58.7155 z m -59.6328,59.6493 h 22.0182 v 42.1051 h -22.0182 z m 30.2753,0 h 22.0182 v 42.1051 h -22.0182 z"
       style="fill:#666666;fill-rule:evenodd;stroke:none;stroke-width:0.253178px;stroke-linecap:butt;stroke-linejoin:miter;stroke-opacity:1" />
    <path
       id="rect4727"
       d="m -206.09541,-71.88273 v 200 h 200 v -200 z m 7.33926,7.01737 h 185.32102 v 28.070424 h -185.32102 z m 0,35.087792 h 36.69723 V 121.0999 h -36.69723 z m 44.03695,0 h 97.24748 v 42.105649 h -97.24748 z m 104.58675,0 h 36.69732 V 121.0999 H -50.13245 Z M -154.7192,19.34545 h 97.24748 V 121.0999 h -97.24748 z"
       style="fill:#666666;fill-rule:evenodd;stroke:none;stroke-width:0.253178px;stroke-linecap:butt;stroke-linejoin:miter;stroke-opacity:1" />
  </g>
</svg>
