<?xml version="1.0" encoding="UTF-8" standalone="no"?>
<svg
   xmlns:dc="http://purl.org/dc/elements/1.1/"
   xmlns:cc="http://creativecommons.org/ns#"
   xmlns:rdf="http://www.w3.org/1999/02/22-rdf-syntax-ns#"
   xmlns:svg="http://www.w3.org/2000/svg"
   xmlns="http://www.w3.org/2000/svg"
   xmlns:sodipodi="http://sodipodi.sourceforge.net/DTD/sodipodi-0.dtd"
   xmlns:inkscape="http://www.inkscape.org/namespaces/inkscape"
   width="218.00014mm"
   height="248.99994mm"
   viewBox="0 0 218.00014 248.99994"
   version="1.1"
   id="svg83"
   sodipodi:docname="1_9AR_frame03_development.svg"
   inkscape:version="1.0.2 (e86c8708, 2021-01-15)">
  <sodipodi:namedview
     pagecolor="#ffffff"
     bordercolor="#666666"
     borderopacity="1"
     objecttolerance="10"
     gridtolerance="10"
     guidetolerance="10"
     inkscape:pageopacity="0"
     inkscape:pageshadow="2"
     inkscape:window-width="718"
     inkscape:window-height="480"
     id="namedview15"
     showgrid="false"
     inkscape:zoom="0.22084132"
     inkscape:cx="408.81916"
     inkscape:cy="465.83215"
     inkscape:window-x="0"
     inkscape:window-y="25"
     inkscape:window-maximized="0"
     inkscape:current-layer="svg83" />
  <defs
     id="defs77" />
  <metadata
     id="metadata80">
    <rdf:RDF>
      <cc:Work
         rdf:about="">
        <dc:format>image/svg+xml</dc:format>
        <dc:type
           rdf:resource="http://purl.org/dc/dcmitype/StillImage" />
        <dc:title />
      </cc:Work>
    </rdf:RDF>
  </metadata>
  <g
     id="layer1"
     transform="translate(3.1667353,-25.248577)">
    <path
       id="rect4367"
       d="M -3.1667353,25.248577 V 274.24851 H 214.8334 V 25.248577 Z m 7.9997875,7.999788 H 69.833462 V 73.248403 H 4.8330522 Z m 73.0001968,0 H 97.832995 V 73.248403 H 77.833249 Z m 28.000081,0 h 68.00013 v 40.000038 h -68.00013 z m 75.99991,0 h 24.99982 V 73.248403 H 181.83324 Z M 4.8330522,81.248743 H 28.729888 69.833462 V 106.24856 H 28.729888 4.8330522 Z m 73.0001968,0 H 97.832995 V 106.24856 H 77.833249 Z m 28.000081,0 h 24.99982 43.00031 v 24.999817 h -43.00031 -24.99982 z m 75.99991,0 h 24.99982 V 106.24856 H 181.83324 Z M 4.8330522,114.24835 H 28.729888 69.833462 V 266.24873 H 28.729888 4.8330522 Z m 73.0001968,0 H 97.832995 V 233.24857 H 77.833249 Z m 28.000081,0 h 24.99982 43.00031 v 119.00022 h -43.00031 -24.99982 z m 75.99991,0 h 24.99982 V 233.24857 H 181.83324 Z M 77.833249,241.24836 h 19.999746 v 25.00037 H 77.833249 Z m 103.999991,0 h 24.99982 v 25.00037 h -24.99982 z m -75.99991,5.6e-4 h 24.99982 43.00031 v 24.99981 h -43.00031 -24.99982 z"
       style="fill:#666666;fill-rule:evenodd;stroke:none;stroke-width:0.282222px;stroke-linecap:butt;stroke-linejoin:miter;stroke-opacity:1" />
  </g>
</svg>
