<?xml version="1.0" encoding="UTF-8" standalone="no"?>
<svg
   xmlns:dc="http://purl.org/dc/elements/1.1/"
   xmlns:cc="http://creativecommons.org/ns#"
   xmlns:rdf="http://www.w3.org/1999/02/22-rdf-syntax-ns#"
   xmlns:svg="http://www.w3.org/2000/svg"
   xmlns="http://www.w3.org/2000/svg"
   xmlns:sodipodi="http://sodipodi.sourceforge.net/DTD/sodipodi-0.dtd"
   xmlns:inkscape="http://www.inkscape.org/namespaces/inkscape"
   width="218.00014mm"
   height="300.00003mm"
   viewBox="0 0 772.44143 1062.9922"
   id="svg4266"
   version="1.1"
   inkscape:version="1.0.2 (e86c8708, 2021-01-15)"
   sodipodi:docname="1_9AR_frame04plain.svg">
  <defs
     id="defs4268" />
  <sodipodi:namedview
     id="base"
     pagecolor="#ffffff"
     bordercolor="#666666"
     borderopacity="1.0"
     inkscape:pageopacity="0.0"
     inkscape:pageshadow="2"
     inkscape:zoom="0.45492555"
     inkscape:cx="386.22047"
     inkscape:cy="531.49606"
     inkscape:document-units="mm"
     inkscape:current-layer="layer1"
     showgrid="false"
     inkscape:window-width="1440"
     inkscape:window-height="792"
     inkscape:window-x="0"
     inkscape:window-y="25"
     inkscape:window-maximized="1"
     showguides="false"
     inkscape:guide-bbox="true"
     guidetolerance="10000"
     inkscape:document-rotation="0">
    <inkscape:grid
       type="xygrid"
       id="grid4274"
       units="mm"
       spacingx="3.5433072"
       spacingy="3.5433072"
       empspacing="10"
       originx="0"
       originy="0" />
    <sodipodi:guide
       position="0,5102.3626"
       orientation="1,0"
       id="guide4416"
       inkscape:label=""
       inkscape:color="rgb(0,0,255)" />
    <sodipodi:guide
       position="386.22049,5811.024"
       orientation="1,0"
       id="guide4418"
       inkscape:label=""
       inkscape:color="rgb(0,0,255)" />
    <sodipodi:guide
       position="28.346458,4996.0634"
       orientation="1,0"
       id="guide4420"
       inkscape:label=""
       inkscape:color="rgb(0,0,255)" />
    <sodipodi:guide
       position="744.09452,5740.1579"
       orientation="1,0"
       id="guide4422"
       inkscape:label=""
       inkscape:color="rgb(0,0,255)" />
    <sodipodi:guide
       position="673.22838,28.346565"
       orientation="0,1"
       id="guide4424"
       inkscape:label=""
       inkscape:color="rgb(0,0,255)" />
    <sodipodi:guide
       position="992.12603,1034.6457"
       orientation="0,1"
       id="guide4426"
       inkscape:label=""
       inkscape:color="rgb(0,0,255)" />
    <sodipodi:guide
       position="850.39374,28.346565"
       orientation="0,1"
       id="guide4428"
       inkscape:label=""
       inkscape:color="rgb(0,0,255)" />
    <sodipodi:guide
       position="1133.8583,28.346565"
       orientation="0,1"
       id="guide4430"
       inkscape:label=""
       inkscape:color="rgb(0,0,255)" />
    <sodipodi:guide
       position="0,28.346565"
       orientation="0,1"
       id="guide4432"
       inkscape:label=""
       inkscape:color="rgb(0,0,255)" />
    <sodipodi:guide
       position="-779.52759,0.00010813315"
       orientation="0,1"
       id="guide4475"
       inkscape:label=""
       inkscape:color="rgb(0,0,255)" />
    <sodipodi:guide
       position="141.73229,290.5513"
       orientation="0,1"
       id="guide4477"
       inkscape:label=""
       inkscape:color="rgb(0,0,255)" />
    <sodipodi:guide
       position="283.46458,262.20484"
       orientation="0,1"
       id="guide4479"
       inkscape:label=""
       inkscape:color="rgb(0,0,255)" />
    <sodipodi:guide
       position="357.87404,354.33083"
       orientation="1,0"
       id="guide4491"
       inkscape:label=""
       inkscape:color="rgb(0,0,255)" />
    <sodipodi:guide
       position="287.00788,531.49623"
       orientation="1,0"
       id="guide4495"
       inkscape:label=""
       inkscape:color="rgb(0,0,255)" />
    <sodipodi:guide
       position="1027.5591,758.26786"
       orientation="0,1"
       id="guide4505"
       inkscape:label=""
       inkscape:color="rgb(0,0,255)" />
    <sodipodi:guide
       position="1133.8583,729.9214"
       orientation="0,1"
       id="guide4507"
       inkscape:label=""
       inkscape:color="rgb(0,0,255)" />
    <sodipodi:guide
       position="744.09452,127.55917"
       orientation="0,1"
       id="guide4529"
       inkscape:label=""
       inkscape:color="rgb(0,0,255)" />
  </sodipodi:namedview>
  <metadata
     id="metadata4271">
    <rdf:RDF>
      <cc:Work
         rdf:about="">
        <dc:format>image/svg+xml</dc:format>
        <dc:type
           rdf:resource="http://purl.org/dc/dcmitype/StillImage" />
        <dc:title />
      </cc:Work>
    </rdf:RDF>
  </metadata>
  <g
     inkscape:label="Layer 1"
     inkscape:groupmode="layer"
     id="layer1"
     transform="translate(0,10.629916)">
    <path
       style="fill:#666666;fill-rule:evenodd;stroke:none;stroke-width:2.15614px;stroke-linecap:butt;stroke-linejoin:miter;stroke-opacity:1"
       d="M 0,0 V 1062.9922 H 772.44141 V 0 Z M 28.345703,28.347656 H 170.07812 V 116.92969 H 28.345703 Z m 170.080077,0 H 357.87305 V 116.92969 H 198.42578 Z m 187.79492,0 H 627.16602 V 116.92969 H 386.2207 Z m 269.29102,0 h 88.58203 V 116.92969 H 655.51172 Z M 447.85938,148.81836 H 627.16602 V 304.72461 H 572.57617 A 187.79527,187.79527 0 0 0 447.85938,148.81836 Z m -419.513677,0.002 H 324.58594 A 187.79527,187.79527 0 0 0 199.74219,304.72461 H 28.345703 Z m 627.166017,0 h 88.58203 v 155.9043 H 655.51172 Z M 386.2207,166.53516 A 159.44882,159.44882 0 0 1 545.66992,325.98438 159.44882,159.44882 0 0 1 386.2207,485.43359 159.44882,159.44882 0 0 1 226.77148,325.98438 159.44882,159.44882 0 0 1 386.2207,166.53516 Z M 28.345703,333.07031 H 198.67773 a 187.79527,187.79527 0 0 0 59.98438,130.41992 V 559.8418 A 187.79527,187.79527 0 0 0 95.138672,655.51172 H 28.345703 Z m 545.316407,0 h 53.50391 v 439.3711 H 444.60352 A 187.79527,187.79527 0 0 0 446.45703,747.63867 187.79527,187.79527 0 0 0 386.2207,610.13281 V 513.7793 A 187.79527,187.79527 0 0 0 573.66211,333.07031 Z m 81.84961,0.002 h 88.58203 v 322.43941 h -88.58203 z m -368.50391,152.0898 a 187.79527,187.79527 0 0 0 70.86524,26.22851 v 77.06836 a 187.79527,187.79527 0 0 0 -70.86524,-26.22656 z m -28.3457,103.02734 A 159.44882,159.44882 0 0 1 418.10938,747.63867 159.44882,159.44882 0 0 1 258.66211,907.08594 159.44882,159.44882 0 0 1 99.212891,747.63867 159.44882,159.44882 0 0 1 258.66211,588.18945 Z M 28.345703,683.85742 h 53.931641 a 187.79527,187.79527 0 0 0 -11.41211,63.78125 187.79527,187.79527 0 0 0 1.869141,24.80274 H 28.345703 Z m 627.166017,0.002 h 88.58203 v 88.58203 H 655.51172 Z M 28.345703,800.78711 H 78.677734 A 187.79527,187.79527 0 0 0 258.66211,935.43359 v 99.21291 H 28.345703 Z m 410.322267,0 h 188.49805 v 88.58203 H 386.2207 v -4.13476 a 187.79527,187.79527 0 0 0 52.44727,-84.44727 z m 216.84375,0 h 88.58203 v 88.58398 H 655.51172 Z M 357.87305,906.95508 V 1034.6465 H 287.00781 V 933.13477 a 187.79527,187.79527 0 0 0 70.86524,-26.17969 z m 28.34765,10.76172 h 240.94532 v 116.9297 H 386.2207 Z m 269.29102,0 h 88.58203 v 116.9297 h -88.58203 z"
       transform="translate(0,-10.629916)"
       id="rect4414" />
  </g>
</svg>
