<?xml version="1.0" encoding="UTF-8" standalone="no"?>
<svg
   xmlns:dc="http://purl.org/dc/elements/1.1/"
   xmlns:cc="http://creativecommons.org/ns#"
   xmlns:rdf="http://www.w3.org/1999/02/22-rdf-syntax-ns#"
   xmlns:svg="http://www.w3.org/2000/svg"
   xmlns="http://www.w3.org/2000/svg"
   xmlns:sodipodi="http://sodipodi.sourceforge.net/DTD/sodipodi-0.dtd"
   xmlns:inkscape="http://www.inkscape.org/namespaces/inkscape"
   width="218.00014mm"
   height="300.00003mm"
   viewBox="0 0 772.44143 1062.9922"
   id="svg4266"
   version="1.1"
   inkscape:version="1.0.2 (e86c8708, 2021-01-15)"
   sodipodi:docname="1_9AL_frame04plain.svg">
  <defs
     id="defs4268" />
  <sodipodi:namedview
     id="base"
     pagecolor="#ffffff"
     bordercolor="#666666"
     borderopacity="1.0"
     inkscape:pageopacity="0.0"
     inkscape:pageshadow="2"
     inkscape:zoom="0.45495886"
     inkscape:cx="386.22047"
     inkscape:cy="531.49606"
     inkscape:document-units="mm"
     inkscape:current-layer="layer1"
     showgrid="false"
     inkscape:window-width="1440"
     inkscape:window-height="793"
     inkscape:window-x="0"
     inkscape:window-y="25"
     inkscape:window-maximized="1"
     showguides="false"
     inkscape:guide-bbox="true"
     guidetolerance="10000"
     inkscape:document-rotation="0">
    <inkscape:grid
       type="xygrid"
       id="grid4274"
       units="mm"
       spacingx="3.5433072"
       spacingy="3.5433072"
       empspacing="10"
       originx="0"
       originy="0" />
    <sodipodi:guide
       position="0,5102.3626"
       orientation="1,0"
       id="guide4416"
       inkscape:label=""
       inkscape:color="rgb(0,0,255)" />
    <sodipodi:guide
       position="386.22049,5811.024"
       orientation="1,0"
       id="guide4418"
       inkscape:label=""
       inkscape:color="rgb(0,0,255)" />
    <sodipodi:guide
       position="28.346458,4996.0634"
       orientation="1,0"
       id="guide4420"
       inkscape:label=""
       inkscape:color="rgb(0,0,255)" />
    <sodipodi:guide
       position="744.09452,5740.1579"
       orientation="1,0"
       id="guide4422"
       inkscape:label=""
       inkscape:color="rgb(0,0,255)" />
    <sodipodi:guide
       position="673.22838,28.346565"
       orientation="0,1"
       id="guide4424"
       inkscape:label=""
       inkscape:color="rgb(0,0,255)" />
    <sodipodi:guide
       position="992.12603,1034.6457"
       orientation="0,1"
       id="guide4426"
       inkscape:label=""
       inkscape:color="rgb(0,0,255)" />
    <sodipodi:guide
       position="850.39374,28.346565"
       orientation="0,1"
       id="guide4428"
       inkscape:label=""
       inkscape:color="rgb(0,0,255)" />
    <sodipodi:guide
       position="1133.8583,28.346565"
       orientation="0,1"
       id="guide4430"
       inkscape:label=""
       inkscape:color="rgb(0,0,255)" />
    <sodipodi:guide
       position="0,28.346565"
       orientation="0,1"
       id="guide4432"
       inkscape:label=""
       inkscape:color="rgb(0,0,255)" />
    <sodipodi:guide
       position="-779.52759,0.00010813315"
       orientation="0,1"
       id="guide4475"
       inkscape:label=""
       inkscape:color="rgb(0,0,255)" />
    <sodipodi:guide
       position="141.73229,290.5513"
       orientation="0,1"
       id="guide4477"
       inkscape:label=""
       inkscape:color="rgb(0,0,255)" />
    <sodipodi:guide
       position="283.46458,262.20484"
       orientation="0,1"
       id="guide4479"
       inkscape:label=""
       inkscape:color="rgb(0,0,255)" />
    <sodipodi:guide
       position="357.87404,354.33083"
       orientation="1,0"
       id="guide4491"
       inkscape:label=""
       inkscape:color="rgb(0,0,255)" />
    <sodipodi:guide
       position="287.00788,531.49623"
       orientation="1,0"
       id="guide4495"
       inkscape:label=""
       inkscape:color="rgb(0,0,255)" />
    <sodipodi:guide
       position="-127.55906,712.20484"
       orientation="0,1"
       id="guide4505"
       inkscape:label=""
       inkscape:color="rgb(0,0,255)" />
    <sodipodi:guide
       position="-74.409452,683.85838"
       orientation="0,1"
       id="guide4507"
       inkscape:label=""
       inkscape:color="rgb(0,0,255)" />
    <sodipodi:guide
       position="744.09452,127.55917"
       orientation="0,1"
       id="guide4529"
       inkscape:label=""
       inkscape:color="rgb(0,0,255)" />
  </sodipodi:namedview>
  <metadata
     id="metadata4271">
    <rdf:RDF>
      <cc:Work
         rdf:about="">
        <dc:format>image/svg+xml</dc:format>
        <dc:type
           rdf:resource="http://purl.org/dc/dcmitype/StillImage" />
        <dc:title />
      </cc:Work>
    </rdf:RDF>
  </metadata>
  <g
     inkscape:label="Layer 1"
     inkscape:groupmode="layer"
     id="layer1"
     transform="translate(0,10.629911)">
    <path
       style="fill:#666666;fill-rule:evenodd;stroke:none;stroke-width:2.15614px;stroke-linecap:butt;stroke-linejoin:miter;stroke-opacity:1"
       d="M 0,0 V 1062.9922 H 772.44141 V 0 Z M 28.345703,28.347656 H 170.07812 V 116.92969 H 28.345703 Z m 170.080077,0 H 357.87305 V 116.92969 H 198.42578 Z m 187.79492,0 H 627.16602 V 116.92969 H 386.2207 Z m 269.29102,0 h 88.58203 V 116.92969 H 655.51172 Z M 28.345703,145.27539 H 170.07812 V 304.72461 H 28.345703 Z m 170.080077,3.54297 h 421.65234 7.0879 v 155.90625 h -7.0879 -66.5625 a 113.38583,113.38583 0 0 0 -82.25585,-35.43359 113.38583,113.38583 0 0 0 -82.15039,35.43359 h -190.6836 z m 457.08594,0.002 h 88.58203 v 155.9043 H 655.51172 Z M 471.25977,297.63867 a 85.039368,85.039368 0 0 1 85.03906,85.03906 85.039368,85.039368 0 0 1 -85.03906,85.03907 85.039368,85.039368 0 0 1 -85.03907,-85.03907 85.039368,85.039368 0 0 1 85.03907,-85.03906 z m -272.83399,35.43164 h 171.03125 a 113.38583,113.38583 0 0 0 -11.58203,49.60742 113.38583,113.38583 0 0 0 99.21094,112.38672 v 83.64258 A 187.79527,187.79527 0 0 0 375.58984,559.8418 187.79527,187.79527 0 0 0 198.42578,685.99805 Z m 374.70117,0 h 11.51953 38.97461 V 538.58203 655.51172 H 584.64648 538.97266 A 187.79527,187.79527 0 0 0 485.43359,595.53711 V 538.58203 495.0332 a 113.38583,113.38583 0 0 0 99.21289,-112.35547 113.38583,113.38583 0 0 0 -11.51953,-49.60742 z m -544.781247,0.002 H 170.07812 V 1034.6465 H 28.345703 Z m 627.166017,0 h 88.58203 V 655.51172 H 655.51172 Z M 375.08984,589.1875 A 158.95038,158.95038 0 0 1 534.04102,748.13867 158.95038,158.95038 0 0 1 375.08984,907.08789 158.95038,158.95038 0 0 1 216.14062,748.13867 158.95038,158.95038 0 0 1 375.08984,589.1875 Z m 177.66602,94.67188 h 32.30078 38.61133 3.54492 v 88.58203 h -3.54492 -61.50977 a 186.04906,187.79544 0 0 0 1.83594,-24.80274 186.04906,187.79544 0 0 0 -11.23828,-63.77929 z m 102.75586,0 h 88.58203 v 88.58203 h -88.58203 z m -99.64258,116.92578 h 67.75 v 38.97656 49.60547 H 499.60547 a 186.04906,187.79544 0 0 0 0.0391,-0.0332 186.04906,187.79544 0 0 0 56.22461,-88.54882 z m 67.75195,0 h 3.54493 v 88.58398 h -3.54493 z m 31.89063,0.002 h 88.58203 v 88.58398 h -88.58203 z m -457.08594,8.48242 a 187.79527,187.79527 0 0 0 4.91992,12.16602 187.79527,187.79527 0 0 0 3.92774,8.67578 187.79527,187.79527 0 0 0 4.27344,8.11719 187.79527,187.79527 0 0 0 4.82421,8.33007 187.79527,187.79527 0 0 0 5.00586,7.56836 187.79527,187.79527 0 0 0 5.70117,7.89844 187.79527,187.79527 0 0 0 5.65821,6.93359 187.79527,187.79527 0 0 0 125.13867,65.5879 v 0.88671 99.21296 H 198.42578 V 935.43359 875.19727 Z M 454.70703,917.7168 h 172.45899 v 67.32422 49.60548 H 386.2207 v -49.60548 -49.98438 a 187.79527,187.79527 0 0 0 68.48633,-17.33984 z m 200.80469,0 h 88.58203 v 116.9297 h -88.58203 z"
       transform="translate(0,-10.629911)"
       id="rect4276" />
    <rect
       y="322.44144"
       x="623.62207"
       height="322.44095"
       width="3.5433071"
       id="rect6241"
       style="fill:#cccccc;fill-opacity:1;fill-rule:evenodd;stroke:none;stroke-width:1px;stroke-linecap:butt;stroke-linejoin:miter;stroke-opacity:1" />
  </g>
</svg>
