<?xml version="1.0" encoding="UTF-8" standalone="no"?>
<!-- Generator: Adobe Illustrator 26.3.1, SVG Export Plug-In . SVG Version: 6.00 Build 0)  -->

<svg
   version="1.1"
   id="Layer_1"
   x="0px"
   y="0px"
   viewBox="0 0 1105.2047 603.04717"
   xml:space="preserve"
   sodipodi:docname="comparisonChart.svg"
   width="1105.2047"
   height="603.04718"
   inkscape:version="1.2.1 (9c6d41e4, 2022-07-14)"
   xmlns:inkscape="http://www.inkscape.org/namespaces/inkscape"
   xmlns:sodipodi="http://sodipodi.sourceforge.net/DTD/sodipodi-0.dtd"
   xmlns="http://www.w3.org/2000/svg"
   xmlns:svg="http://www.w3.org/2000/svg"><defs
   id="defs485" /><sodipodi:namedview
   id="namedview483"
   pagecolor="#ffffff"
   bordercolor="#999999"
   borderopacity="1"
   inkscape:showpageshadow="0"
   inkscape:pageopacity="0"
   inkscape:pagecheckerboard="0"
   inkscape:deskcolor="#d1d1d1"
   showgrid="false"
   inkscape:zoom="0.33990091"
   inkscape:cx="553.10238"
   inkscape:cy="305.97153"
   inkscape:current-layer="Layer_1" />
<style
   type="text/css"
   id="style322">
	.st0{font-family:'InterTight-Black';}
	.st1{font-size:59.723px;}
	.st2{fill:#FFFFFF;stroke:#000000;stroke-width:2.2236;stroke-miterlimit:3.2;}
	.st3{fill:#FFFFFF;}
	.st4{font-family:'InterTight-Bold';}
	.st5{font-size:27.4947px;}
	.st6{font-size:26.3724px;}
	.st7{fill:#FFFFFF;stroke:#000000;stroke-width:2.2445;stroke-miterlimit:3.2;}
	.st8{fill:#FFFFFF;stroke:#000000;stroke-width:2.2253;stroke-miterlimit:3.2;}
</style>
<text
   id="text328"
   x="64.483131"
   y="45.375481"><tspan
     x="64.483131"
     y="45.375481"
     class="st0 st1"
     id="tspan324">It’s no </tspan><tspan
     x="64.483131"
     y="117.04548"
     class="st0 st1"
     id="tspan326">contest.</tspan></text>
<rect
   x="1.207328"
   y="147.92987"
   class="st2"
   width="1102.79"
   height="453.91"
   id="rect330" />
<rect
   x="393.13733"
   y="57.499886"
   width="712.01001"
   height="88.949997"
   id="rect332" />
<text
   class="st3 st4 st5"
   id="text334"
   x="425.66043"
   y="109.24258">Lightscreens</text>
<text
   id="text352"
   x="64.099831"
   y="185.20798"><tspan
     x="64.099831"
     y="185.20798"
     class="st4 st6"
     id="tspan336">Choice of pattern</tspan><tspan
     x="64.099831"
     y="241.87798"
     class="st4 st6"
     id="tspan338">Choice of color</tspan><tspan
     x="64.099831"
     y="298.55798"
     class="st4 st6"
     id="tspan340">Choice of size</tspan><tspan
     x="64.099831"
     y="355.228"
     class="st4 st6"
     id="tspan342">Provides Privacy</tspan><tspan
     x="64.099831"
     y="411.89798"
     class="st4 st6"
     id="tspan344">Easy Installation</tspan><tspan
     x="64.099831"
     y="468.56796"
     class="st4 st6"
     id="tspan346">Design online</tspan><tspan
     x="64.099831"
     y="525.24799"
     class="st4 st6"
     id="tspan348">Shatterproof</tspan><tspan
     x="64.099831"
     y="581.91797"
     class="st4 st6"
     id="tspan350">Budget Friendly</tspan></text>
<text
   id="text358"
   x="654.85083"
   y="94.193779"><tspan
     x="654.85083"
     y="94.193779"
     class="st3 st4 st5"
     id="tspan354">Premade </tspan><tspan
     x="654.85083"
     y="127.86378"
     class="st3 st4 st5"
     id="tspan356">Stained Glass</tspan></text>
<text
   id="text364"
   x="889.3313"
   y="94.193779"><tspan
     x="889.3313"
     y="94.193779"
     class="st3 st4 st5"
     id="tspan360">Custom </tspan><tspan
     x="889.3313"
     y="127.86378"
     class="st3 st4 st5"
     id="tspan362">Stained Glass</tspan></text>
<line
   class="st7"
   x1="2.8973303"
   y1="204.51988"
   x2="1104.3873"
   y2="204.51988"
   id="line366" />
<line
   class="st7"
   x1="2.8973303"
   y1="261.83987"
   x2="1104.3873"
   y2="261.83987"
   id="line368" />
<line
   class="st7"
   x1="2.8973303"
   y1="315.20987"
   x2="1104.3873"
   y2="315.20987"
   id="line370" />
<line
   class="st7"
   x1="2.8973303"
   y1="370.54987"
   x2="1104.3873"
   y2="370.54987"
   id="line372" />
<line
   class="st7"
   x1="2.8973303"
   y1="425.89987"
   x2="1104.3873"
   y2="425.89987"
   id="line374" />
<line
   class="st7"
   x1="2.8973303"
   y1="485.19989"
   x2="1104.3873"
   y2="485.19989"
   id="line376" />
<line
   class="st7"
   x1="2.8973303"
   y1="544.46985"
   x2="1104.3873"
   y2="544.46985"
   id="line378" />
<line
   class="st8"
   x1="394.2673"
   y1="145.32988"
   x2="394.2673"
   y2="602.6499"
   id="line380" />
<line
   class="st8"
   x1="623.55731"
   y1="145.32988"
   x2="623.55731"
   y2="602.6499"
   id="line382" />
<line
   class="st8"
   x1="858.76733"
   y1="145.32988"
   x2="858.76733"
   y2="602.6499"
   id="line384" />
<g
   id="XMLID_4_"
   transform="translate(-48.002671,-42.190118)">
	<g
   id="XMLID_6_">
		<path
   id="XMLID_9_"
   d="m 552.01,240.48 c -12.53,0 -22.73,-10.2 -22.73,-22.73 0,-12.53 10.2,-22.73 22.73,-22.73 12.53,0 22.73,10.2 22.73,22.73 0.01,12.54 -10.19,22.73 -22.73,22.73 z" />
	</g>
	<polygon
   id="XMLID_5_"
   class="st3"
   points="537.62,220.72 546.2,229.29 547.63,227.86 549.06,226.43 566.41,209.08 563.54,206.22 546.2,223.56 540.49,217.85 " />
</g>
<g
   id="XMLID_00000125597359502366442450000018381734433440713649_"
   transform="translate(-48.002671,-42.190118)">
	<g
   id="XMLID_00000093857040171269386980000015132895090197509771_">
		<path
   id="XMLID_00000007430218009999472960000017275504275931688365_"
   d="m 552.01,298.3 c -12.53,0 -22.73,-10.2 -22.73,-22.73 0,-12.53 10.2,-22.73 22.73,-22.73 12.53,0 22.73,10.2 22.73,22.73 0.01,12.53 -10.19,22.73 -22.73,22.73 z" />
	</g>
	<polygon
   id="XMLID_00000154389973659634586630000017324771856863616410_"
   class="st3"
   points="537.62,278.53 546.2,287.11 547.63,285.68 549.06,284.24 566.41,266.9 563.54,264.03 546.2,281.38 540.49,275.67 " />
</g>
<g
   id="XMLID_00000026154258339904652830000008604906734943534229_"
   transform="translate(-48.002671,-42.190118)">
	<g
   id="XMLID_00000056427825464417690300000017609438495720625329_">
		<path
   id="XMLID_00000119799191998614226190000010735694599341624510_"
   d="m 1027.89,241.06 c -12.53,0 -22.73,-10.2 -22.73,-22.73 0,-12.53 10.2,-22.73 22.73,-22.73 12.53,0 22.73,10.2 22.73,22.73 0,12.53 -10.2,22.73 -22.73,22.73 z" />
	</g>
	<polygon
   id="XMLID_00000028284176200492334250000013826438444940408234_"
   class="st3"
   points="1013.49,221.29 1022.07,229.87 1023.5,228.44 1024.93,227 1042.28,209.66 1039.41,206.79 1022.07,224.14 1016.36,218.43 " />
</g>
<g
   id="XMLID_00000030445697939142502010000013145393507804650168_"
   transform="translate(-48.002671,-42.190118)">
	<g
   id="XMLID_00000126319141964472308540000003944768221941847988_">
		<path
   id="XMLID_00000020399409660171967010000010197029800695498124_"
   d="m 552.01,353.15 c -12.53,0 -22.73,-10.2 -22.73,-22.73 0,-12.53 10.2,-22.73 22.73,-22.73 12.53,0 22.73,10.2 22.73,22.73 0.01,12.54 -10.19,22.73 -22.73,22.73 z" />
	</g>
	<polygon
   id="XMLID_00000163070845327971737170000005993628230563489944_"
   class="st3"
   points="537.62,333.38 546.2,341.96 547.63,340.53 549.06,339.09 566.41,321.75 563.54,318.88 546.2,336.23 540.49,330.52 " />
</g>
<g
   id="XMLID_00000052095507142705860200000011181075363190120629_"
   transform="translate(-48.002671,-42.190118)">
	<g
   id="XMLID_00000092455948303653705650000012232555729095324566_">
		<path
   id="XMLID_00000031187613474551596470000004205033504211465361_"
   d="m 552.01,408 c -12.53,0 -22.73,-10.2 -22.73,-22.73 0,-12.53 10.2,-22.73 22.73,-22.73 12.53,0 22.73,10.2 22.73,22.73 0,12.53 -10.19,22.73 -22.73,22.73 z" />
	</g>
	<polygon
   id="XMLID_00000119075233123435399730000013446063234181926578_"
   class="st3"
   points="537.62,388.23 546.2,396.81 547.63,395.38 549.06,393.95 566.41,376.6 563.54,373.73 546.2,391.08 540.49,385.37 " />
</g>
<g
   id="XMLID_00000135662027543807975760000007812025379322535353_"
   transform="translate(-48.002671,-42.190118)">
	<g
   id="XMLID_00000107589272016334341050000015430808429981624725_">
		<path
   id="XMLID_00000034088317924007009470000001079304014564289169_"
   d="m 552.01,462.85 c -12.53,0 -22.73,-10.2 -22.73,-22.73 0,-12.53 10.2,-22.73 22.73,-22.73 12.53,0 22.73,10.2 22.73,22.73 0.01,12.54 -10.19,22.73 -22.73,22.73 z" />
	</g>
	<polygon
   id="XMLID_00000092437254553343149360000018054181137681331618_"
   class="st3"
   points="537.62,443.09 546.2,451.66 547.63,450.23 549.06,448.8 566.41,431.45 563.54,428.59 546.2,445.93 540.49,440.22 " />
</g>
<g
   id="XMLID_00000106832087057749736170000006930036322809779903_"
   transform="translate(-48.002671,-42.190118)">
	<g
   id="XMLID_00000129186720100185957480000013204836322299815857_">
		<path
   id="XMLID_00000030479837041255767720000002988967613098586797_"
   d="m 552.01,519.19 c -12.53,0 -22.73,-10.2 -22.73,-22.73 0,-12.53 10.2,-22.73 22.73,-22.73 12.53,0 22.73,10.2 22.73,22.73 0.01,12.53 -10.19,22.73 -22.73,22.73 z" />
	</g>
	<polygon
   id="XMLID_00000027586107157198719280000014834481324609230515_"
   class="st3"
   points="537.62,499.42 546.2,507.99 547.63,506.56 549.06,505.13 566.41,487.78 563.54,484.92 546.2,502.27 540.49,496.55 " />
</g>
<g
   id="XMLID_00000110471990346291099180000008921235233618889102_"
   transform="translate(-48.002671,-42.190118)">
	<g
   id="XMLID_00000035521259076366774610000011094833306728487312_">
		<path
   id="XMLID_00000168091508456484902780000005360475465035154352_"
   d="m 790.69,462.95 c -12.53,0 -22.73,-10.2 -22.73,-22.73 0,-12.53 10.2,-22.73 22.73,-22.73 12.53,0 22.73,10.2 22.73,22.73 0,12.53 -10.2,22.73 -22.73,22.73 z" />
	</g>
	<polygon
   id="XMLID_00000031908653665158723980000013795760200892071558_"
   class="st3"
   points="776.3,443.18 784.87,451.75 786.31,450.32 787.74,448.89 805.08,431.54 802.22,428.68 784.87,446.03 779.16,440.31 " />
</g>
<g
   id="XMLID_00000029735200250662159580000009282581446353262732_"
   transform="translate(-48.002671,-42.190118)">
	<g
   id="XMLID_00000060739604447424664500000004075973402371398548_">
		<path
   id="XMLID_00000013160766339931095900000002314592152278680501_"
   d="m 552.01,579.97 c -12.53,0 -22.73,-10.2 -22.73,-22.73 0,-12.53 10.2,-22.73 22.73,-22.73 12.53,0 22.73,10.2 22.73,22.73 0,12.53 -10.19,22.73 -22.73,22.73 z" />
	</g>
	<polygon
   id="XMLID_00000026146073397405802900000018327218715097169834_"
   class="st3"
   points="537.62,560.2 546.2,568.78 547.63,567.34 549.06,565.91 566.41,548.56 563.54,545.7 546.2,563.05 540.49,557.34 " />
</g>
<g
   id="XMLID_00000033368763508085475890000015277683834507230867_"
   transform="translate(-48.002671,-42.190118)">
	<g
   id="XMLID_00000037670866299466606660000016568398875873308573_">
		<path
   id="XMLID_00000039852804510566509550000015898888018172377764_"
   d="m 552.01,637.79 c -12.53,0 -22.73,-10.2 -22.73,-22.73 0,-12.53 10.2,-22.73 22.73,-22.73 12.53,0 22.73,10.2 22.73,22.73 0.01,12.53 -10.19,22.73 -22.73,22.73 z" />
	</g>
	<polygon
   id="XMLID_00000070091759775843659500000008657213795283866028_"
   class="st3"
   points="537.62,618.02 546.2,626.59 547.63,625.16 549.06,623.73 566.41,606.38 563.54,603.52 546.2,620.86 540.49,615.15 " />
</g>
<g
   id="XMLID_1_"
   transform="translate(-48.002671,-42.190118)">
	<polygon
   id="XMLID_7_"
   points="791.12,215.05 780.65,204.58 777.7,207.54 788.16,218 777.7,228.47 780.65,231.43 791.12,220.96 801.58,231.43 804.54,228.47 794.08,218 804.54,207.54 801.58,204.58 " />
	<g
   id="XMLID_2_">
		<path
   id="XMLID_8_"
   d="m 791.12,241.48 c -12.94,0 -23.47,-10.53 -23.47,-23.47 0,-12.94 10.53,-23.47 23.47,-23.47 12.94,0 23.47,10.53 23.47,23.47 0,12.94 -10.53,23.47 -23.47,23.47 z m 0,-42.77 c -10.64,0 -19.29,8.65 -19.29,19.29 0,10.64 8.65,19.29 19.29,19.29 10.64,0 19.29,-8.65 19.29,-19.29 0,-10.63 -8.65,-19.29 -19.29,-19.29 z" />
	</g>
</g>
<g
   id="XMLID_00000009550096685558416820000000314999231728237471_"
   transform="translate(-48.002671,-42.190118)">
	<polygon
   id="XMLID_00000084500312023509300920000014991534454147707814_"
   points="791.12,272.75 780.65,262.28 777.7,265.24 788.16,275.7 777.7,286.17 780.65,289.13 791.12,278.66 801.58,289.13 804.54,286.17 794.08,275.7 804.54,265.24 801.58,262.28 " />
	<g
   id="XMLID_00000073681499429011085480000014921032100891390602_">
		<path
   id="XMLID_00000166654300852827484840000013277780946765318301_"
   d="m 791.12,299.18 c -12.94,0 -23.47,-10.53 -23.47,-23.47 0,-12.94 10.53,-23.47 23.47,-23.47 12.94,0 23.47,10.53 23.47,23.47 0,12.94 -10.53,23.47 -23.47,23.47 z m 0,-42.77 c -10.64,0 -19.29,8.65 -19.29,19.29 0,10.64 8.65,19.29 19.29,19.29 10.64,0 19.29,-8.65 19.29,-19.29 0,-10.63 -8.65,-19.29 -19.29,-19.29 z" />
	</g>
</g>
<g
   id="XMLID_00000110467478587708325260000000110988368413823643_"
   transform="translate(-48.002671,-42.190118)">
	<g
   id="XMLID_00000127754881563276406410000005758526341594957756_">
		<path
   id="XMLID_00000018956050999176416920000010450631644596333218_"
   d="m 1027.89,297.94 c -12.53,0 -22.73,-10.2 -22.73,-22.73 0,-12.53 10.2,-22.73 22.73,-22.73 12.53,0 22.73,10.2 22.73,22.73 0,12.54 -10.2,22.73 -22.73,22.73 z" />
	</g>
	<polygon
   id="XMLID_00000090293817935643022790000001417209179262544034_"
   class="st3"
   points="1013.49,278.18 1022.07,286.75 1023.5,285.32 1024.93,283.89 1042.28,266.54 1039.41,263.68 1022.07,281.02 1016.36,275.31 " />
</g>
<g
   id="XMLID_00000016057075037690262410000014640729827330745532_"
   transform="translate(-48.002671,-42.190118)">
	<polygon
   id="XMLID_00000183246361357561063390000008876406935230653067_"
   points="791.12,327.6 780.65,317.13 777.7,320.09 788.16,330.56 777.7,341.02 780.65,343.98 791.12,333.51 801.58,343.98 804.54,341.02 794.08,330.56 804.54,320.09 801.58,317.13 " />
	<g
   id="XMLID_00000073000329228903609070000006869693525734690734_">
		<path
   id="XMLID_00000121247413501862468190000013865645114811881149_"
   d="m 791.12,354.03 c -12.94,0 -23.47,-10.53 -23.47,-23.47 0,-12.94 10.53,-23.47 23.47,-23.47 12.94,0 23.47,10.53 23.47,23.47 0,12.94 -10.53,23.47 -23.47,23.47 z m 0,-42.77 c -10.64,0 -19.29,8.65 -19.29,19.29 0,10.64 8.65,19.29 19.29,19.29 10.64,0 19.29,-8.65 19.29,-19.29 0,-10.63 -8.65,-19.29 -19.29,-19.29 z" />
	</g>
</g>
<g
   id="XMLID_00000066478978572104882420000008609549597374495138_"
   transform="translate(-48.002671,-42.190118)">
	<g
   id="XMLID_00000157994467335227507290000016651640131034194825_">
		<path
   id="XMLID_00000067945652668511925090000002963238271773540791_"
   d="m 1027.89,353.47 c -12.53,0 -22.73,-10.2 -22.73,-22.73 0,-12.53 10.2,-22.73 22.73,-22.73 12.53,0 22.73,10.2 22.73,22.73 0,12.54 -10.2,22.73 -22.73,22.73 z" />
	</g>
	<polygon
   id="XMLID_00000078034650945141031300000016440863220121363094_"
   class="st3"
   points="1013.49,333.7 1022.07,342.28 1023.5,340.85 1024.93,339.42 1042.28,322.07 1039.41,319.2 1022.07,336.55 1016.36,330.84 " />
</g>
<g
   id="XMLID_00000132088225700358213740000011701581065359977398_"
   transform="translate(-48.002671,-42.190118)">
	<g
   id="XMLID_00000031190311326834452170000006085376212736557494_">
		<path
   id="XMLID_00000052063065822500791420000008129938541479883675_"
   d="m 1027.89,408.08 c -12.53,0 -22.73,-10.2 -22.73,-22.73 0,-12.53 10.2,-22.73 22.73,-22.73 12.53,0 22.73,10.2 22.73,22.73 0,12.53 -10.2,22.73 -22.73,22.73 z" />
	</g>
	<polygon
   id="XMLID_00000127745166672779204650000011542978773766350248_"
   class="st3"
   points="1013.49,388.31 1022.07,396.88 1023.5,395.45 1024.93,394.02 1042.28,376.67 1039.41,373.81 1022.07,391.16 1016.36,385.44 " />
</g>
<g
   id="XMLID_00000178901909031957666390000008717424643714270126_"
   transform="translate(-48.002671,-42.190118)">
	<polygon
   id="XMLID_00000094577762264244420680000004137930826279524514_"
   points="791.12,382.45 780.65,371.99 777.7,374.94 788.16,385.41 777.7,395.87 780.65,398.83 791.12,388.37 801.58,398.83 804.54,395.87 794.08,385.41 804.54,374.94 801.58,371.99 " />
	<g
   id="XMLID_00000037652991575303275510000013510497249459238786_">
		<path
   id="XMLID_00000075856068957822834300000009683080468193564315_"
   d="m 791.12,408.88 c -12.94,0 -23.47,-10.53 -23.47,-23.47 0,-12.94 10.53,-23.47 23.47,-23.47 12.94,0 23.47,10.53 23.47,23.47 0,12.94 -10.53,23.47 -23.47,23.47 z m 0,-42.76 c -10.64,0 -19.29,8.65 -19.29,19.29 0,10.64 8.65,19.29 19.29,19.29 10.64,0 19.29,-8.65 19.29,-19.29 0,-10.64 -8.65,-19.29 -19.29,-19.29 z" />
	</g>
</g>
<g
   id="XMLID_00000006677800525038795450000006303376133533581212_"
   transform="translate(-48.002671,-42.190118)">
	<polygon
   id="XMLID_00000160892503198152203990000017770362567308940949_"
   points="791.12,612.23 780.65,601.77 777.7,604.73 788.16,615.19 777.7,625.65 780.65,628.61 791.12,618.15 801.58,628.61 804.54,625.65 794.08,615.19 804.54,604.73 801.58,601.77 " />
	<g
   id="XMLID_00000175308784372693520210000004664802115664748204_">
		<path
   id="XMLID_00000087380566360449959220000015434222798485195155_"
   d="m 791.12,638.66 c -12.94,0 -23.47,-10.53 -23.47,-23.47 0,-12.94 10.53,-23.47 23.47,-23.47 12.94,0 23.47,10.53 23.47,23.47 0,12.94 -10.53,23.47 -23.47,23.47 z m 0,-42.76 c -10.64,0 -19.29,8.65 -19.29,19.29 0,10.64 8.65,19.29 19.29,19.29 10.64,0 19.29,-8.65 19.29,-19.29 0,-10.64 -8.65,-19.29 -19.29,-19.29 z" />
	</g>
</g>
<g
   id="XMLID_00000174595172738486870350000003251490010561442696_"
   transform="translate(-48.002671,-42.190118)">
	<polygon
   id="XMLID_00000120546489981068141390000008574089316045391282_"
   points="1028.62,494.19 1018.16,483.73 1015.2,486.68 1025.66,497.15 1015.2,507.61 1018.16,510.57 1028.62,500.11 1039.08,510.57 1042.04,507.61 1031.58,497.15 1042.04,486.68 1039.08,483.73 " />
	<g
   id="XMLID_00000013167619711684330990000016733316713496612541_">
		<path
   id="XMLID_00000035488797529620070050000012658380279290340246_"
   d="m 1028.62,520.62 c -12.94,0 -23.47,-10.53 -23.47,-23.47 0,-12.94 10.53,-23.47 23.47,-23.47 12.94,0 23.47,10.53 23.47,23.47 0,12.94 -10.53,23.47 -23.47,23.47 z m 0,-42.76 c -10.64,0 -19.29,8.65 -19.29,19.29 0,10.64 8.65,19.29 19.29,19.29 10.64,0 19.29,-8.65 19.29,-19.29 0,-10.64 -8.65,-19.29 -19.29,-19.29 z" />
	</g>
</g>
<g
   id="XMLID_00000141418138344615338040000002122096008937518734_"
   transform="translate(-48.002671,-42.190118)">
	<polygon
   id="XMLID_00000152966953825999659150000001021086386350217881_"
   points="1028.62,436.25 1018.16,425.79 1015.2,428.75 1025.66,439.21 1015.2,449.67 1018.16,452.63 1028.62,442.17 1039.08,452.63 1042.04,449.67 1031.58,439.21 1042.04,428.75 1039.08,425.79 " />
	<g
   id="XMLID_00000096035612112326534210000007163934745560658062_">
		<path
   id="XMLID_00000090288140547573772310000005971664588504022180_"
   d="m 1028.62,462.68 c -12.94,0 -23.47,-10.53 -23.47,-23.47 0,-12.94 10.53,-23.47 23.47,-23.47 12.94,0 23.47,10.53 23.47,23.47 0,12.94 -10.53,23.47 -23.47,23.47 z m 0,-42.76 c -10.64,0 -19.29,8.65 -19.29,19.29 0,10.64 8.65,19.29 19.29,19.29 10.64,0 19.29,-8.65 19.29,-19.29 0,-10.64 -8.65,-19.29 -19.29,-19.29 z" />
	</g>
</g>
<g
   id="XMLID_00000052825713159167074950000002279729512751983510_"
   transform="translate(-48.002671,-42.190118)">
	<polygon
   id="XMLID_00000100353880982389516290000008420157233393077427_"
   points="791.12,554.41 780.65,543.94 777.7,546.9 788.16,557.37 777.7,567.83 780.65,570.79 791.12,560.32 801.58,570.79 804.54,567.83 794.08,557.37 804.54,546.9 801.58,543.94 " />
	<g
   id="XMLID_00000134228761805589220340000011536423054823223728_">
		<path
   id="XMLID_00000164483650763132563240000015542813659815532196_"
   d="m 791.12,580.84 c -12.94,0 -23.47,-10.53 -23.47,-23.47 0,-12.94 10.53,-23.47 23.47,-23.47 12.94,0 23.47,10.53 23.47,23.47 0,12.94 -10.53,23.47 -23.47,23.47 z m 0,-42.76 c -10.64,0 -19.29,8.65 -19.29,19.29 0,10.64 8.65,19.29 19.29,19.29 10.64,0 19.29,-8.65 19.29,-19.29 0,-10.64 -8.65,-19.29 -19.29,-19.29 z" />
	</g>
</g>
<g
   id="XMLID_00000085219404127725549000000002841641838803054992_"
   transform="translate(-48.002671,-42.190118)">
	<polygon
   id="XMLID_00000039094258458677223480000015021553463514583742_"
   points="791.12,494.8 780.65,484.34 777.7,487.29 788.16,497.76 777.7,508.22 780.65,511.18 791.12,500.72 801.58,511.18 804.54,508.22 794.08,497.76 804.54,487.29 801.58,484.34 " />
	<g
   id="XMLID_00000008146787378125087930000014020020275590362548_">
		<path
   id="XMLID_00000124157772872718744810000004771840243421172664_"
   d="m 791.12,521.23 c -12.94,0 -23.47,-10.53 -23.47,-23.47 0,-12.94 10.53,-23.47 23.47,-23.47 12.94,0 23.47,10.53 23.47,23.47 0,12.94 -10.53,23.47 -23.47,23.47 z m 0,-42.76 c -10.64,0 -19.29,8.65 -19.29,19.29 0,10.64 8.65,19.29 19.29,19.29 10.64,0 19.29,-8.65 19.29,-19.29 0,-10.64 -8.65,-19.29 -19.29,-19.29 z" />
	</g>
</g>
<g
   id="XMLID_00000021821716796281179980000016001173756983023543_"
   transform="translate(-48.002671,-42.190118)">
	<polygon
   id="XMLID_00000091724980423333987480000001865997171247614635_"
   points="1028.62,612.65 1018.16,602.19 1015.2,605.15 1025.66,615.61 1015.2,626.07 1018.16,629.03 1028.62,618.57 1039.08,629.03 1042.04,626.07 1031.58,615.61 1042.04,605.15 1039.08,602.19 " />
	<g
   id="XMLID_00000178204110976703885800000012978103878134610618_">
		<path
   id="XMLID_00000034788249986884796200000007644111589435808170_"
   d="m 1028.62,639.09 c -12.94,0 -23.47,-10.53 -23.47,-23.47 0,-12.94 10.53,-23.47 23.47,-23.47 12.94,0 23.47,10.53 23.47,23.47 0,12.93 -10.53,23.47 -23.47,23.47 z m 0,-42.77 c -10.64,0 -19.29,8.65 -19.29,19.29 0,10.64 8.65,19.29 19.29,19.29 10.64,0 19.29,-8.65 19.29,-19.29 0,-10.64 -8.65,-19.29 -19.29,-19.29 z" />
	</g>
</g>
<g
   id="XMLID_00000098938340579245933580000010840207203343079808_"
   transform="translate(-48.002671,-42.190118)">
	<polygon
   id="XMLID_00000167372271485636928970000007344136769243996052_"
   points="1028.62,554.15 1018.16,543.69 1015.2,546.65 1025.66,557.11 1015.2,567.58 1018.16,570.53 1028.62,560.07 1039.08,570.53 1042.04,567.58 1031.58,557.11 1042.04,546.65 1039.08,543.69 " />
	<g
   id="XMLID_00000147906645739015697870000015738323530195541439_">
		<path
   id="XMLID_00000054263786527387711920000009905908677614944445_"
   d="m 1028.62,580.59 c -12.94,0 -23.47,-10.53 -23.47,-23.47 0,-12.94 10.53,-23.47 23.47,-23.47 12.94,0 23.47,10.53 23.47,23.47 0,12.94 -10.53,23.47 -23.47,23.47 z m 0,-42.77 c -10.64,0 -19.29,8.65 -19.29,19.29 0,10.64 8.65,19.29 19.29,19.29 10.64,0 19.29,-8.65 19.29,-19.29 0,-10.63 -8.65,-19.29 -19.29,-19.29 z" />
	</g>
</g>
</svg>
