<?xml version="1.0" encoding="UTF-8" standalone="no"?>
<!-- Generator: Adobe Illustrator 26.3.1, SVG Export Plug-In . SVG Version: 6.00 Build 0)  -->

<svg
   version="1.1"
   id="Layer_1"
   x="0px"
   y="0px"
   viewBox="0 0 523 117"
   xml:space="preserve"
   sodipodi:docname="g46.svg"
   inkscape:version="1.2.1 (9c6d41e4, 2022-07-14)"
   inkscape:export-filename="g46.png"
   inkscape:export-xdpi="83.68"
   inkscape:export-ydpi="83.68"
   width="523"
   height="117"
   xmlns:inkscape="http://www.inkscape.org/namespaces/inkscape"
   xmlns:sodipodi="http://sodipodi.sourceforge.net/DTD/sodipodi-0.dtd"
   xmlns="http://www.w3.org/2000/svg"
   xmlns:svg="http://www.w3.org/2000/svg"><defs
   id="defs53" /><sodipodi:namedview
   id="namedview51"
   pagecolor="#ffffff"
   bordercolor="#999999"
   borderopacity="1"
   inkscape:showpageshadow="0"
   inkscape:pageopacity="0"
   inkscape:pagecheckerboard="0"
   inkscape:deskcolor="#d1d1d1"
   showgrid="false"
   inkscape:zoom="0.5"
   inkscape:cx="70"
   inkscape:cy="196"
   inkscape:current-layer="Layer_1" />
<style
   type="text/css"
   id="style2">
	.st0{fill-rule:evenodd;clip-rule:evenodd;stroke:#010101;stroke-width:0.4874;stroke-miterlimit:3.2;}
	.st1{enable-background:new    ;}
	.st2{fill:#FFFFFF;}
</style>
<g
   id="g48"
   transform="matrix(1.2562624,0,0,1.3915962,-115.19527,-79.766897)">
	<g
   id="g4157"
   transform="translate(1.2968155,8.6329637)">
		<circle
   id="ellipse4279"
   class="st0"
   cx="406.09"
   cy="91.370003"
   r="41.790001" />
		<g
   class="st1"
   id="g11">
			<path
   class="st2"
   d="m 385.26,91.65 c 1.24,-0.16 2.13,-0.35 2.67,-0.59 0.96,-0.41 1.44,-1.04 1.44,-1.9 0,-1.05 -0.37,-1.77 -1.1,-2.17 -0.74,-0.4 -1.82,-0.6 -3.24,-0.6 -1.6,0 -2.73,0.39 -3.4,1.17 -0.48,0.58 -0.79,1.36 -0.95,2.34 h -6.45 c 0.14,-2.23 0.77,-4.07 1.88,-5.51 1.77,-2.25 4.82,-3.38 9.13,-3.38 2.81,0 5.3,0.55 7.48,1.66 2.18,1.11 3.27,3.2 3.27,6.28 v 11.72 c 0,0.81 0.02,1.8 0.05,2.95 0.05,0.88 0.18,1.47 0.4,1.78 0.22,0.31 0.55,0.57 0.98,0.77 v 0.98 h -7.27 c -0.2,-0.52 -0.34,-1 -0.42,-1.45 -0.08,-0.45 -0.14,-0.97 -0.19,-1.55 -0.93,1 -2,1.85 -3.21,2.55 -1.45,0.83 -3.08,1.24 -4.9,1.24 -2.33,0 -4.25,-0.66 -5.76,-1.98 -1.52,-1.32 -2.28,-3.19 -2.28,-5.61 0,-3.14 1.22,-5.41 3.66,-6.82 1.34,-0.77 3.31,-1.31 5.9,-1.64 z m 4.08,3.12 c -0.43,0.27 -0.86,0.48 -1.29,0.64 -0.43,0.16 -1.03,0.32 -1.79,0.46 l -1.52,0.28 c -1.42,0.25 -2.45,0.55 -3.07,0.91 -1.05,0.61 -1.58,1.55 -1.58,2.84 0,1.14 0.32,1.96 0.96,2.47 0.64,0.51 1.42,0.76 2.34,0.76 1.46,0 2.8,-0.42 4.03,-1.27 1.23,-0.84 1.87,-2.38 1.92,-4.62 z"
   id="path5" />
			<path
   class="st2"
   d="m 416.03,81.04 c 0.09,0.01 0.28,0.02 0.57,0.04 v 6.84 c -0.42,-0.05 -0.8,-0.08 -1.12,-0.09 -0.32,-0.01 -0.59,-0.02 -0.8,-0.02 -2.69,0 -4.49,0.88 -5.41,2.62 -0.52,0.98 -0.77,2.5 -0.77,4.55 v 12.21 h -6.73 V 81.64 h 6.38 v 4.45 c 1.03,-1.7 1.93,-2.87 2.7,-3.49 1.25,-1.05 2.88,-1.57 4.88,-1.57 0.1,0 0.21,0 0.3,0.01 z"
   id="path7" />
			<path
   class="st2"
   d="m 417.89,86.63 v -4.76 h 3.56 v -7.12 h 6.61 v 7.12 h 4.15 v 4.76 h -4.15 v 13.5 c 0,1.05 0.13,1.7 0.4,1.96 0.27,0.26 1.08,0.39 2.44,0.39 0.2,0 0.42,0 0.64,-0.01 0.22,-0.01 0.45,-0.02 0.67,-0.04 v 4.99 l -3.16,0.12 c -3.16,0.11 -5.31,-0.44 -6.47,-1.64 -0.75,-0.77 -1.12,-1.95 -1.12,-3.54 V 86.63 Z"
   id="path9" />
		</g>
		<g
   class="st1"
   id="g35">
			<path
   d="m 90.4,73.3 h 7.22 v 28.34 h 17.25 v 6.21 H 90.4 Z"
   id="path13" />
			<path
   d="m 126.04,79.25 h -6.77 v -6.16 h 6.77 z m -6.77,3.05 h 6.77 v 25.55 h -6.77 z"
   id="path15" />
			<path
   d="m 145.15,82.27 c 1.62,0.67 2.93,1.91 3.93,3.7 V 82.3 h 6.52 v 24.23 c 0,3.3 -0.55,5.78 -1.66,7.45 -1.91,2.88 -5.56,4.31 -10.97,4.31 -3.27,0 -5.93,-0.64 -7.99,-1.92 -2.06,-1.28 -3.2,-3.2 -3.42,-5.74 h 7.27 c 0.19,0.78 0.49,1.34 0.91,1.69 0.72,0.61 1.93,0.91 3.63,0.91 2.41,0 4.02,-0.8 4.83,-2.41 0.53,-1.03 0.8,-2.77 0.8,-5.2 v -1.64 c -0.64,1.09 -1.33,1.91 -2.06,2.46 -1.33,1.02 -3.05,1.52 -5.18,1.52 -3.28,0 -5.9,-1.15 -7.86,-3.46 -1.96,-2.31 -2.94,-5.43 -2.94,-9.36 0,-3.8 0.94,-6.99 2.83,-9.57 1.89,-2.59 4.56,-3.88 8.03,-3.88 1.26,0 2.38,0.19 3.33,0.58 z m 2.28,18.32 c 1.07,-1.18 1.61,-3.06 1.61,-5.64 0,-2.42 -0.51,-4.27 -1.53,-5.53 -1.02,-1.26 -2.38,-1.9 -4.1,-1.9 -2.33,0 -3.94,1.1 -4.83,3.3 -0.47,1.17 -0.7,2.62 -0.7,4.34 0,1.48 0.25,2.8 0.75,3.96 0.9,2.16 2.52,3.23 4.85,3.23 1.56,0.01 2.87,-0.58 3.95,-1.76 z"
   id="path17" />
			<path
   d="m 180.19,82.44 c 1.28,0.55 2.34,1.38 3.16,2.51 0.7,0.95 1.13,1.94 1.28,2.94 0.16,1.01 0.23,2.65 0.23,4.94 v 15.01 h -6.82 V 92.29 c 0,-1.38 -0.23,-2.49 -0.7,-3.33 -0.6,-1.19 -1.75,-1.78 -3.44,-1.78 -1.75,0 -3.08,0.59 -3.99,1.77 -0.91,1.18 -1.36,2.87 -1.36,5.06 v 13.84 h -6.68 V 73.41 h 6.68 V 85.6 c 0.96,-1.48 2.08,-2.52 3.35,-3.11 1.27,-0.59 2.6,-0.88 4,-0.88 1.58,0.01 3.01,0.28 4.29,0.83 z"
   id="path19" />
			<path
   d="m 188.53,87.29 v -4.76 h 3.56 v -7.12 h 6.61 v 7.12 h 4.15 v 4.76 h -4.15 v 13.5 c 0,1.05 0.13,1.7 0.4,1.96 0.27,0.26 1.08,0.39 2.44,0.39 0.2,0 0.42,0 0.64,-0.01 0.22,-0.01 0.45,-0.02 0.67,-0.04 v 4.99 l -3.16,0.12 c -3.16,0.11 -5.31,-0.44 -6.47,-1.64 -0.75,-0.77 -1.12,-1.95 -1.12,-3.54 V 87.29 Z"
   id="path21" />
			<path
   d="m 212.88,97.18 c 0.22,1.58 0.66,2.76 1.32,3.54 1.2,1.42 3.25,2.13 6.15,2.13 1.74,0 3.15,-0.19 4.24,-0.56 2.06,-0.72 3.09,-2.05 3.09,-4.01 0,-1.14 -0.5,-2.02 -1.51,-2.65 -1.01,-0.61 -2.61,-1.15 -4.8,-1.62 l -3.74,-0.82 c -3.68,-0.81 -6.2,-1.7 -7.58,-2.65 -2.33,-1.59 -3.49,-4.09 -3.49,-7.48 0,-3.09 1.14,-5.66 3.42,-7.71 2.28,-2.05 5.62,-3.07 10.04,-3.07 3.69,0 6.83,0.96 9.43,2.89 2.6,1.93 3.97,4.73 4.09,8.4 h -6.94 c -0.13,-2.08 -1.06,-3.55 -2.79,-4.43 -1.15,-0.58 -2.59,-0.87 -4.3,-0.87 -1.91,0 -3.43,0.38 -4.57,1.12 -1.14,0.75 -1.71,1.8 -1.71,3.14 0,1.23 0.56,2.16 1.68,2.77 0.72,0.41 2.25,0.88 4.59,1.43 l 6.06,1.43 c 2.66,0.62 4.65,1.46 5.98,2.51 2.06,1.62 3.09,3.98 3.09,7.05 0,3.16 -1.22,5.78 -3.66,7.86 -2.44,2.09 -5.89,3.13 -10.34,3.13 -4.55,0 -8.13,-1.03 -10.73,-3.08 -2.6,-2.05 -3.91,-4.88 -3.91,-8.47 h 6.89 z"
   id="path23" />
			<path
   d="m 254.44,91.46 c -0.12,-0.95 -0.45,-1.81 -0.96,-2.58 -0.75,-1.03 -1.92,-1.55 -3.5,-1.55 -2.26,0 -3.8,1.12 -4.63,3.35 -0.44,1.18 -0.66,2.76 -0.66,4.72 0,1.87 0.22,3.37 0.66,4.51 0.8,2.12 2.3,3.19 4.51,3.19 1.57,0 2.68,-0.42 3.34,-1.27 0.66,-0.85 1.06,-1.94 1.2,-3.28 h 6.82 c -0.16,2.03 -0.89,3.95 -2.21,5.77 -2.1,2.92 -5.2,4.38 -9.31,4.38 -4.11,0 -7.14,-1.22 -9.08,-3.66 -1.94,-2.44 -2.91,-5.6 -2.91,-9.48 0,-4.38 1.07,-7.79 3.21,-10.23 2.14,-2.44 5.1,-3.66 8.87,-3.66 3.21,0 5.83,0.72 7.87,2.16 2.04,1.44 3.25,3.98 3.62,7.62 h -6.84 z"
   id="path25" />
			<path
   d="m 280.04,81.7 c 0.09,0.01 0.28,0.02 0.57,0.04 v 6.84 c -0.42,-0.05 -0.8,-0.08 -1.12,-0.09 -0.32,-0.01 -0.59,-0.02 -0.8,-0.02 -2.69,0 -4.49,0.88 -5.41,2.62 -0.52,0.98 -0.77,2.5 -0.77,4.55 v 12.21 h -6.73 V 82.3 h 6.38 v 4.45 c 1.03,-1.7 1.93,-2.87 2.7,-3.49 1.25,-1.05 2.88,-1.57 4.88,-1.57 0.11,0 0.21,0 0.3,0.01 z"
   id="path27" />
			<path
   d="m 301.18,82.82 c 1.78,0.8 3.25,2.06 4.41,3.78 1.05,1.52 1.72,3.28 2.04,5.28 0.18,1.17 0.25,2.86 0.22,5.07 h -18.61 c 0.1,2.56 0.99,4.36 2.67,5.39 1.02,0.64 2.25,0.96 3.68,0.96 1.52,0 2.76,-0.39 3.71,-1.17 0.52,-0.42 0.98,-1.01 1.38,-1.76 h 6.82 c -0.18,1.52 -1.01,3.05 -2.48,4.62 -2.29,2.48 -5.49,3.73 -9.61,3.73 -3.4,0 -6.4,-1.05 -9,-3.14 -2.6,-2.09 -3.9,-5.5 -3.9,-10.23 0,-4.43 1.17,-7.82 3.52,-10.18 2.35,-2.36 5.39,-3.54 9.14,-3.54 2.22,-0.01 4.22,0.39 6.01,1.19 z m -10,5.77 c -0.94,0.97 -1.54,2.29 -1.78,3.95 h 11.51 c -0.12,-1.77 -0.71,-3.12 -1.78,-4.04 -1.07,-0.92 -2.39,-1.38 -3.96,-1.38 -1.71,0.01 -3.04,0.49 -3.99,1.47 z"
   id="path29" />
			<path
   d="m 327.87,82.82 c 1.78,0.8 3.25,2.06 4.41,3.78 1.05,1.52 1.72,3.28 2.04,5.28 0.18,1.17 0.25,2.86 0.22,5.07 h -18.61 c 0.1,2.56 0.99,4.36 2.67,5.39 1.02,0.64 2.25,0.96 3.68,0.96 1.52,0 2.76,-0.39 3.71,-1.17 0.52,-0.42 0.98,-1.01 1.38,-1.76 h 6.82 c -0.18,1.52 -1.01,3.05 -2.48,4.62 -2.29,2.48 -5.49,3.73 -9.61,3.73 -3.4,0 -6.4,-1.05 -9,-3.14 -2.6,-2.09 -3.9,-5.5 -3.9,-10.23 0,-4.43 1.17,-7.82 3.52,-10.18 2.35,-2.36 5.39,-3.54 9.14,-3.54 2.23,-0.01 4.23,0.39 6.01,1.19 z m -9.99,5.77 c -0.94,0.97 -1.54,2.29 -1.78,3.95 h 11.51 c -0.12,-1.77 -0.71,-3.12 -1.78,-4.04 -1.07,-0.92 -2.39,-1.38 -3.96,-1.38 -1.72,0.01 -3.05,0.49 -3.99,1.47 z"
   id="path31" />
			<path
   d="m 358.52,83.76 c 1.67,1.38 2.51,3.68 2.51,6.88 v 17.2 h -6.84 V 92.31 c 0,-1.34 -0.18,-2.38 -0.54,-3.09 -0.65,-1.31 -1.89,-1.97 -3.72,-1.97 -2.25,0 -3.79,0.96 -4.63,2.88 -0.43,1.02 -0.65,2.31 -0.65,3.89 v 13.83 h -6.68 v -25.5 h 6.47 v 3.73 c 0.86,-1.31 1.67,-2.26 2.43,-2.84 1.37,-1.03 3.1,-1.55 5.2,-1.55 2.63,0 4.78,0.69 6.45,2.07 z"
   id="path33" />
		</g>
	</g>
	<g
   class="st1"
   id="g46">
		<path
   d="m 458.38,95.55 h 8.32 c 2.27,0 3.74,0.68 4.4,2.03 0.4,0.8 0.48,1.72 0.25,2.77 -0.25,1.22 -0.81,2.22 -1.67,3.01 -0.45,0.41 -1.05,0.79 -1.79,1.13 0.91,0.38 1.56,0.8 1.95,1.28 0.69,0.84 0.88,2.01 0.57,3.49 -0.26,1.25 -0.9,2.38 -1.9,3.39 -1.49,1.51 -3.5,2.27 -6.05,2.27 h -8.19 z m 4.59,17.12 c 1.61,0 2.85,-0.47 3.73,-1.4 0.55,-0.59 0.92,-1.3 1.11,-2.14 0.3,-1.41 -0.13,-2.36 -1.28,-2.87 -0.61,-0.27 -1.46,-0.41 -2.56,-0.41 h -5.21 l -1.45,6.82 z m 1.02,-8.94 c 1.11,0 2,-0.15 2.68,-0.46 1.07,-0.48 1.74,-1.35 2,-2.61 0.27,-1.27 -0.06,-2.12 -0.99,-2.56 -0.54,-0.25 -1.38,-0.37 -2.52,-0.37 h -4.68 l -1.27,6 z"
   id="path38" />
		<path
   d="m 485.49,103.01 c 0.33,0.71 0.47,1.54 0.42,2.49 0.01,0.65 -0.14,1.69 -0.45,3.11 h -10.35 c -0.26,1.43 -0.17,2.58 0.28,3.45 0.45,0.87 1.34,1.3 2.67,1.3 1.24,0 2.31,-0.41 3.22,-1.23 0.53,-0.47 0.95,-1.02 1.25,-1.65 h 2.33 c -0.18,0.52 -0.5,1.1 -0.98,1.73 -0.48,0.64 -0.98,1.16 -1.5,1.56 -0.87,0.7 -1.86,1.18 -2.98,1.42 -0.61,0.14 -1.27,0.21 -1.99,0.21 -1.76,0 -3.11,-0.64 -4.06,-1.92 -0.95,-1.28 -1.18,-3.07 -0.69,-5.37 0.48,-2.27 1.49,-4.11 3.02,-5.52 1.53,-1.41 3.29,-2.12 5.27,-2.12 1,0 1.92,0.23 2.77,0.71 0.86,0.47 1.44,1.08 1.77,1.83 z m -2.07,3.72 c 0.12,-1.03 0.08,-1.85 -0.14,-2.46 -0.4,-1.14 -1.37,-1.71 -2.89,-1.71 -1.09,0 -2.09,0.39 -2.99,1.18 -0.91,0.79 -1.51,1.79 -1.82,3 h 7.84 z"
   id="path40" />
		<path
   d="m 491.36,96.85 h 2.4 l -0.84,3.94 h 2.25 l -0.41,1.94 h -2.25 l -1.96,9.21 c -0.11,0.49 -0.01,0.82 0.29,0.99 0.17,0.1 0.47,0.15 0.9,0.15 0.11,0 0.24,0 0.37,-0.01 0.13,0 0.29,-0.02 0.47,-0.03 l -0.4,1.87 c -0.29,0.08 -0.59,0.14 -0.89,0.17 -0.3,0.03 -0.63,0.05 -0.97,0.05 -1.11,0 -1.8,-0.28 -2.08,-0.85 -0.28,-0.57 -0.32,-1.3 -0.13,-2.21 l 1.99,-9.35 h -1.91 l 0.41,-1.94 h 1.91 z"
   id="path42" />
		<path
   d="m 503.92,106.36 c 0.56,-0.07 0.98,-0.3 1.25,-0.69 0.15,-0.21 0.26,-0.51 0.34,-0.91 0.18,-0.81 0.01,-1.4 -0.49,-1.76 -0.5,-0.37 -1.29,-0.55 -2.36,-0.55 -1.24,0 -2.19,0.33 -2.85,1 -0.37,0.37 -0.67,0.92 -0.91,1.65 h -2.21 c 0.41,-1.74 1.23,-2.95 2.46,-3.63 1.23,-0.68 2.56,-1.02 4,-1.02 1.66,0 2.94,0.32 3.84,0.95 0.9,0.63 1.2,1.62 0.92,2.95 l -1.73,8.13 c -0.05,0.25 -0.05,0.44 0.02,0.59 0.07,0.15 0.26,0.22 0.59,0.22 0.11,0 0.23,-0.01 0.36,-0.02 0.14,-0.01 0.28,-0.03 0.44,-0.06 l -0.38,1.75 c -0.39,0.11 -0.68,0.17 -0.88,0.2 -0.2,0.03 -0.46,0.04 -0.8,0.04 -0.82,0 -1.35,-0.29 -1.59,-0.87 -0.13,-0.31 -0.18,-0.74 -0.13,-1.31 -0.62,0.63 -1.44,1.18 -2.44,1.65 -1,0.47 -2.05,0.7 -3.14,0.7 -1.31,0 -2.3,-0.4 -2.96,-1.19 -0.66,-0.79 -0.87,-1.79 -0.61,-2.99 0.28,-1.31 0.91,-2.32 1.88,-3.04 0.97,-0.72 2.14,-1.16 3.5,-1.33 z m -4.71,7.01 c 0.83,0 1.69,-0.19 2.56,-0.58 1.45,-0.64 2.33,-1.69 2.65,-3.15 l 0.4,-1.91 c -0.33,0.19 -0.73,0.34 -1.21,0.46 -0.48,0.12 -0.95,0.21 -1.4,0.26 l -1.48,0.18 c -0.89,0.11 -1.57,0.29 -2.06,0.54 -0.82,0.41 -1.32,1.07 -1.52,1.98 -0.15,0.69 -0.02,1.23 0.4,1.62 0.43,0.4 0.98,0.6 1.66,0.6 z"
   id="path44" />
	</g>
</g>
</svg>
