<?xml version="1.0" encoding="UTF-8" standalone="no"?>
<!-- Created with Inkscape (http://www.inkscape.org/) -->

<svg
   xmlns:dc="http://purl.org/dc/elements/1.1/"
   xmlns:cc="http://creativecommons.org/ns#"
   xmlns:rdf="http://www.w3.org/1999/02/22-rdf-syntax-ns#"
   xmlns:svg="http://www.w3.org/2000/svg"
   xmlns="http://www.w3.org/2000/svg"
   xmlns:sodipodi="http://sodipodi.sourceforge.net/DTD/sodipodi-0.dtd"
   xmlns:inkscape="http://www.inkscape.org/namespaces/inkscape"
   width="304mm"
   height="304mm"
   viewBox="0 0 1077.1654 1077.1654"
   id="svg4795"
   version="1.1"
   inkscape:version="0.91 r13725"
   sodipodi:docname="1.5Aframe.svg">
  <defs
     id="defs4797" />
  <sodipodi:namedview
     id="base"
     pagecolor="#ffffff"
     bordercolor="#666666"
     borderopacity="1.0"
     inkscape:pageopacity="0.0"
     inkscape:pageshadow="2"
     inkscape:zoom="0.5565575"
     inkscape:cx="384.44488"
     inkscape:cy="541.02123"
     inkscape:document-units="mm"
     inkscape:current-layer="layer1"
     showgrid="true"
     showguides="true"
     inkscape:window-width="1280"
     inkscape:window-height="708"
     inkscape:window-x="0"
     inkscape:window-y="1"
     inkscape:window-maximized="1"
     inkscape:guide-bbox="true">
    <inkscape:grid
       type="xygrid"
       id="grid5343"
       units="mm"
       spacingx="3.5433075"
       spacingy="3.5433075"
       empspacing="1" />
  </sodipodi:namedview>
  <metadata
     id="metadata4800">
    <rdf:RDF>
      <cc:Work
         rdf:about="">
        <dc:format>image/svg+xml</dc:format>
        <dc:type
           rdf:resource="http://purl.org/dc/dcmitype/StillImage" />
        <dc:title />
      </cc:Work>
    </rdf:RDF>
  </metadata>
  <g
     inkscape:label="Layer 1"
     inkscape:groupmode="layer"
     id="layer1"
     transform="translate(0,24.803138)">
    <text
       xml:space="preserve"
       style="font-style:normal;font-weight:normal;font-size:40px;line-height:125%;font-family:sans-serif;letter-spacing:0px;word-spacing:0px;fill:#000000;fill-opacity:1;stroke:none;stroke-width:1px;stroke-linecap:butt;stroke-linejoin:miter;stroke-opacity:1"
       x="17.716536"
       y="325.98425"
       id="text19402"
       sodipodi:linespacing="125%"><tspan
         sodipodi:role="line"
         id="tspan19404"
         x="17.716536"
         y="325.98425" /></text>
    <path
       style="fill:#666666;fill-rule:evenodd;stroke:#000000;stroke-width:0;stroke-linecap:butt;stroke-linejoin:miter;stroke-miterlimit:4;stroke-dasharray:none;stroke-opacity:1"
       d="M 148.81836 155.90625 L 148.81836 928.3457 L 921.25977 928.3457 L 921.25977 155.90625 L 148.81836 155.90625 z M 177.33789 184.42383 L 520.69336 184.42383 L 520.69336 352.38477 A 196.20422 196.20425 0 0 0 345.0957 527.78125 L 177.33789 527.78125 L 177.33789 184.42383 z M 549.38477 184.42383 L 892.74219 184.42383 L 892.74219 527.78125 L 724.7793 527.78125 A 196.20441 196.2044 0 0 0 549.38477 352.18164 L 549.38477 184.42383 z M 535.03906 379.30664 A 162.81888 162.81886 0 0 1 697.85742 542.12695 A 162.81888 162.81886 0 0 1 535.03906 704.94531 A 162.81888 162.81886 0 0 1 372.2207 542.12695 A 162.81888 162.81886 0 0 1 535.03906 379.30664 z M 177.33789 556.4707 L 345.29883 556.4707 A 196.20445 196.20439 0 0 0 520.69531 732.07031 L 520.69531 899.82812 L 177.33789 899.82812 L 177.33789 556.4707 z M 724.7793 556.4707 L 892.74219 556.4707 L 892.74219 899.82812 L 549.38477 899.82812 L 549.38477 732.07031 A 196.20441 196.20293 0 0 0 724.7793 556.4707 z "
       transform="translate(0,-24.803138)"
       id="rect22364" />
  </g>
</svg>
