<?xml version="1.0" encoding="UTF-8" standalone="no"?>
<!-- Created with Inkscape (http://www.inkscape.org/) -->

<svg
   width="36mm"
   height="48mm"
   viewBox="0 0 127.55906 170.07873"
   id="svg2"
   version="1.1"
   inkscape:version="1.2.1 (9c6d41e4, 2022-07-14)"
   sodipodi:docname="coasterssample.svg"
   xmlns:inkscape="http://www.inkscape.org/namespaces/inkscape"
   xmlns:sodipodi="http://sodipodi.sourceforge.net/DTD/sodipodi-0.dtd"
   xmlns="http://www.w3.org/2000/svg"
   xmlns:svg="http://www.w3.org/2000/svg"
   xmlns:rdf="http://www.w3.org/1999/02/22-rdf-syntax-ns#"
   xmlns:cc="http://creativecommons.org/ns#"
   xmlns:dc="http://purl.org/dc/elements/1.1/">
  <defs
     id="defs4" />
  <sodipodi:namedview
     id="base"
     pagecolor="#ffffff"
     bordercolor="#666666"
     borderopacity="1.0"
     inkscape:pageopacity="0.0"
     inkscape:pageshadow="2"
     inkscape:zoom="1.9952765"
     inkscape:cx="18.042612"
     inkscape:cy="164.38824"
     inkscape:document-units="mm"
     inkscape:current-layer="layer1"
     showgrid="false"
     objecttolerance="20"
     guidetolerance="10000"
     showguides="false"
     inkscape:guide-bbox="true"
     inkscape:window-width="1280"
     inkscape:window-height="708"
     inkscape:window-x="0"
     inkscape:window-y="1"
     inkscape:window-maximized="1"
     inkscape:showpageshadow="0"
     inkscape:pagecheckerboard="0"
     inkscape:deskcolor="#d1d1d1">
    <inkscape:grid
       type="xygrid"
       id="grid4136"
       units="mm"
       spacingx="3.543307"
       spacingy="3.5433072"
       empspacing="10"
       originx="0"
       originy="-52.896382" />
    <sodipodi:guide
       position="446.45667,463.92002"
       orientation="1,0"
       id="guide4213"
       inkscape:label=""
       inkscape:color="rgb(0,0,255)"
       inkscape:locked="false" />
  </sodipodi:namedview>
  <metadata
     id="metadata7">
    <rdf:RDF>
      <cc:Work
         rdf:about="">
        <dc:format>image/svg+xml</dc:format>
        <dc:type
           rdf:resource="http://purl.org/dc/dcmitype/StillImage" />
      </cc:Work>
    </rdf:RDF>
  </metadata>
  <g
     inkscape:label="Layer 1"
     inkscape:groupmode="layer"
     id="layer1"
     transform="translate(0,-850.14051)">
    <path
       id="rect239"
       style="fill:#000000;stroke-width:0.199093"
       d="m 31.178219,892.6602 v 1.1e-4 H 0 v 31.26731 1.26432 31.1781 H 0.13936906 63.709845 V 892.66031 H 32.442548 v -1.1e-4 z M 1.449812,894.11 h 29.579087 v 14.95576 L 16.314859,923.7783 H 1.449812 Z m 31.142045,0 h 29.668177 v 29.6683 H 47.500332 L 32.591857,908.87132 Z m -0.6842,16.28738 14.068112,14.06674 -14.068112,14.06676 -14.068112,-14.06676 z M 1.449812,925.34126 H 16.50628 l 14.522619,14.52124 v 15.05784 H 1.449812 Z m 45.859101,0 h 14.951121 v 29.57908 H 32.591857 v -14.86339 z" />
    <path
       id="rect239-7"
       style="fill:#000000;stroke-width:0.199093"
       d="m 94.888064,892.6602 v 1.1e-4 H 63.709845 v 31.26731 1.26432 31.1781 h 0.139369 63.570466 V 892.66031 H 96.152393 v -1.1e-4 z M 65.159657,894.11 h 29.579087 v 14.95576 L 80.024704,923.7783 H 65.159657 Z m 31.142045,0 h 29.668168 v 29.6683 H 111.21018 L 96.301702,908.87132 Z m -0.6842,16.28738 14.068108,14.06674 -14.068108,14.06676 -14.068112,-14.06676 z m -30.457845,14.94388 h 15.056468 l 14.522619,14.52124 v 15.05784 H 65.159657 Z m 45.859103,0 h 14.95111 v 29.57908 H 96.301702 v -14.86339 z" />
    <path
       id="rect239-2"
       style="fill:#000000;stroke-width:0.199093"
       d="m 31.317589,956.36992 v 1.2e-4 H 0.13936906 v 31.26731 1.26432 31.17813 H 0.27873814 63.849214 V 956.37004 H 32.581918 v -1.2e-4 z M 1.5891811,957.81974 H 31.168268 V 972.7755 L 16.454229,987.48803 H 1.5891811 Z m 31.1420459,0 h 29.66818 v 29.66829 H 47.639701 L 32.731227,972.58105 Z m -0.684202,16.28737 14.068112,14.06675 -14.068112,14.06674 -14.068112,-14.06674 z M 1.5891811,989.05099 H 16.645649 l 14.522619,14.52121 v 15.0579 H 1.5891811 Z m 45.8590999,0 h 14.951126 v 29.57911 h -29.66818 v -14.8634 z" />
    <path
       id="rect239-7-3"
       style="fill:#000000;stroke-width:0.199093"
       d="m 95.027435,956.36992 v 1.2e-4 H 63.849214 v 31.26731 1.26432 31.17813 h 0.13937 63.570476 v -63.70976 h -31.2673 v -1.2e-4 z M 65.29902,957.81974 H 94.878107 V 972.7755 L 80.164076,987.48803 H 65.299032 Z m 31.142056,0 h 29.668164 v 29.66829 H 111.34955 L 96.441076,972.58105 Z m -0.684207,16.28737 14.068111,14.06675 -14.068111,14.06674 -14.068111,-14.06674 z M 65.29902,989.05099 h 15.056476 l 14.522611,14.52121 v 15.0579 H 65.29902 Z m 45.85911,0 h 14.95111 v 29.57911 H 96.441076 v -14.8634 z" />
  </g>
</svg>
