<?xml version="1.0" encoding="UTF-8" standalone="no"?>
<!-- Created with Inkscape (http://www.inkscape.org/) -->

<svg
   xmlns:dc="http://purl.org/dc/elements/1.1/"
   xmlns:cc="http://creativecommons.org/ns#"
   xmlns:rdf="http://www.w3.org/1999/02/22-rdf-syntax-ns#"
   xmlns:svg="http://www.w3.org/2000/svg"
   xmlns="http://www.w3.org/2000/svg"
   xmlns:sodipodi="http://sodipodi.sourceforge.net/DTD/sodipodi-0.dtd"
   xmlns:inkscape="http://www.inkscape.org/namespaces/inkscape"
   width="300mm"
   height="320mm"
   viewBox="0 0 1062.9922 1133.8583"
   id="svg4795"
   version="1.1"
   inkscape:version="0.91 r13725"
   sodipodi:docname="1.5Sframe.svg">
  <defs
     id="defs4797" />
  <sodipodi:namedview
     id="base"
     pagecolor="#ffffff"
     bordercolor="#666666"
     borderopacity="1.0"
     inkscape:pageopacity="0.0"
     inkscape:pageshadow="2"
     inkscape:zoom="0.39354558"
     inkscape:cx="158.25344"
     inkscape:cy="563.01993"
     inkscape:document-units="mm"
     inkscape:current-layer="layer1"
     showgrid="true"
     showguides="true"
     inkscape:window-width="1280"
     inkscape:window-height="708"
     inkscape:window-x="0"
     inkscape:window-y="1"
     inkscape:window-maximized="1"
     inkscape:guide-bbox="true">
    <inkscape:grid
       type="xygrid"
       id="grid5343"
       units="mm"
       spacingx="3.5433075"
       spacingy="3.5433075"
       empspacing="1" />
    <sodipodi:guide
       position="531.49619,1867.3231"
       orientation="1,0"
       id="guide11451" />
  </sodipodi:namedview>
  <metadata
     id="metadata4800">
    <rdf:RDF>
      <cc:Work
         rdf:about="">
        <dc:format>image/svg+xml</dc:format>
        <dc:type
           rdf:resource="http://purl.org/dc/dcmitype/StillImage" />
        <dc:title />
      </cc:Work>
    </rdf:RDF>
  </metadata>
  <g
     inkscape:label="Layer 1"
     inkscape:groupmode="layer"
     id="layer1"
     transform="translate(0,81.496058)">
    <path
       style="fill:#666666;fill-rule:evenodd;stroke:none;stroke-width:1px;stroke-linecap:butt;stroke-linejoin:miter;stroke-opacity:1"
       d="M 0 0 L 0 1133.8574 L 1062.9922 1133.8574 L 1062.9922 0 L 0 0 z M 28.345703 28.345703 L 233.85742 28.345703 L 233.85742 155.46875 L 120.01953 155.46875 L 120.01953 269.29102 L 28.345703 269.29102 L 28.345703 28.345703 z M 262.20508 28.345703 L 800.78711 28.345703 L 800.78711 155.90625 L 262.20508 155.90625 L 262.20508 28.345703 z M 829.13477 28.345703 L 1034.6465 28.345703 L 1034.6465 269.29102 L 942.97266 269.29102 L 942.97266 155.46875 L 829.13477 155.46875 L 829.13477 28.345703 z M 148.81836 184.25195 L 517.32227 184.25195 L 517.32227 364.29688 A 210.57382 210.57369 0 0 0 329.08203 552.75586 L 148.81836 552.75586 L 148.81836 184.25195 z M 545.83984 184.42188 L 914.00195 184.42188 L 914.00195 552.58594 L 733.90625 552.58594 A 210.37895 210.37893 0 0 0 545.83984 364.30078 L 545.83984 184.42188 z M 28.345703 297.63867 L 120.47266 297.63867 L 120.47266 836.2207 L 28.345703 836.2207 L 28.345703 297.63867 z M 942.51953 297.63867 L 1034.6465 297.63867 L 1034.6465 836.2207 L 942.51953 836.2207 L 942.51953 297.63867 z M 531.49609 393.48438 A 173.45517 173.45527 0 0 1 704.95117 566.88477 A 173.45517 173.45527 0 0 1 531.49609 740.38477 A 173.45517 173.45527 0 0 1 358.04102 566.88477 A 173.45517 173.45527 0 0 1 531.49609 393.48438 z M 148.99023 581.27344 L 329.08594 581.27344 A 210.37903 210.37899 0 0 0 517.15234 769.55859 L 517.15234 949.43555 L 148.99023 949.43555 L 148.99023 581.27344 z M 734.125 581.27344 L 914.00195 581.27344 L 914.00195 949.43555 L 545.83984 949.43555 L 545.83984 769.33984 A 210.37904 210.37904 0 0 0 734.125 581.27344 z M 28.345703 864.56641 L 120.01953 864.56641 L 120.01953 978.39062 L 233.85742 978.39062 L 233.85742 1105.5117 L 28.345703 1105.5117 L 28.345703 864.56641 z M 942.97266 864.56641 L 1034.6465 864.56641 L 1034.6465 1105.5117 L 829.13477 1105.5117 L 829.13477 978.39453 L 942.97266 978.39453 L 942.97266 864.56641 z M 262.20508 977.95312 L 800.78711 977.95312 L 800.78711 1105.5117 L 262.20508 1105.5117 L 262.20508 977.95312 z "
       transform="translate(0,-81.496119)"
       id="rect11448" />
    <text
       xml:space="preserve"
       style="font-style:normal;font-weight:normal;font-size:40px;line-height:125%;font-family:sans-serif;letter-spacing:0px;word-spacing:0px;fill:#000000;fill-opacity:1;stroke:none;stroke-width:1px;stroke-linecap:butt;stroke-linejoin:miter;stroke-opacity:1"
       x="17.716536"
       y="325.98425"
       id="text19402"
       sodipodi:linespacing="125%"><tspan
         sodipodi:role="line"
         id="tspan19404"
         x="17.716536"
         y="325.98425" /></text>
    <text
       xml:space="preserve"
       style="font-style:normal;font-weight:normal;font-size:40px;line-height:125%;font-family:sans-serif;letter-spacing:0px;word-spacing:0px;fill:#000000;fill-opacity:1;stroke:none;stroke-width:1px;stroke-linecap:butt;stroke-linejoin:miter;stroke-opacity:1"
       x="-816.15204"
       y="45.063828"
       id="text19416"
       sodipodi:linespacing="125%"><tspan
         sodipodi:role="line"
         id="tspan19418"
         x="-816.15204"
         y="45.063828"
         style="font-style:normal;font-variant:normal;font-weight:normal;font-stretch:normal;font-size:40.00000381px;font-family:sans-serif;-inkscape-font-specification:sans-serif">v1.5frame.svg</tspan><tspan
         sodipodi:role="line"
         x="-816.15204"
         y="95.063835"
         style="font-style:normal;font-variant:normal;font-weight:normal;font-stretch:normal;font-size:40.00000381px;font-family:sans-serif;-inkscape-font-specification:sans-serif"
         id="tspan4323">Solon version</tspan></text>
  </g>
</svg>
