<?xml version="1.0" encoding="UTF-8" standalone="no"?>
<svg
   xmlns:dc="http://purl.org/dc/elements/1.1/"
   xmlns:cc="http://creativecommons.org/ns#"
   xmlns:rdf="http://www.w3.org/1999/02/22-rdf-syntax-ns#"
   xmlns:svg="http://www.w3.org/2000/svg"
   xmlns="http://www.w3.org/2000/svg"
   xmlns:sodipodi="http://sodipodi.sourceforge.net/DTD/sodipodi-0.dtd"
   xmlns:inkscape="http://www.inkscape.org/namespaces/inkscape"
   width="210mm"
   height="297mm"
   viewBox="0 0 210 297"
   version="1.1"
   id="svg163"
   inkscape:version="1.0.2 (e86c8708, 2021-01-15)"
   sodipodi:docname="1_7Aframe03.svg">
  <defs
     id="defs157" />
  <sodipodi:namedview
     id="base"
     pagecolor="#ffffff"
     bordercolor="#666666"
     borderopacity="1.0"
     inkscape:pageopacity="0.0"
     inkscape:pageshadow="2"
     inkscape:zoom="0.33456693"
     inkscape:cx="400"
     inkscape:cy="560"
     inkscape:document-units="mm"
     inkscape:current-layer="layer1"
     inkscape:document-rotation="0"
     showgrid="false"
     inkscape:window-width="1252"
     inkscape:window-height="795"
     inkscape:window-x="0"
     inkscape:window-y="25"
     inkscape:window-maximized="0" />
  <metadata
     id="metadata160">
    <rdf:RDF>
      <cc:Work
         rdf:about="">
        <dc:format>image/svg+xml</dc:format>
        <dc:type
           rdf:resource="http://purl.org/dc/dcmitype/StillImage" />
        <dc:title></dc:title>
      </cc:Work>
    </rdf:RDF>
  </metadata>
  <g
     inkscape:label="Layer 1"
     inkscape:groupmode="layer"
     id="layer1">
    <path
       id="rect16162"
       style="fill:#666666;fill-opacity:1;fill-rule:evenodd;stroke:none;stroke-width:0.662358px;stroke-linecap:butt;stroke-linejoin:miter;stroke-opacity:1"
       d="M -11.96875 129.13477 L -11.96875 990.86523 L 811.96875 990.86523 L 811.96875 129.13477 L -11.96875 129.13477 z M 199.68555 159.36914 L 600.31445 159.36914 L 600.31445 310.55078 L 600.31445 310.55273 L 400 439.05664 L 199.68555 310.55273 L 199.68555 310.55078 L 199.68555 159.36914 z M 630.55273 159.36914 L 781.73242 159.36914 L 781.73242 960.63086 L 630.55273 960.63086 L 630.55273 159.36914 z M 18.261719 159.45508 L 169.44336 159.45508 L 169.44336 960.71289 L 18.261719 960.71289 L 18.261719 159.45508 z M 199.68555 341.01172 L 384.88086 465.51172 L 384.88086 465.51367 L 384.88086 960.62891 L 199.68555 960.62891 L 199.68555 465.51367 L 199.68555 465.51172 L 199.68555 341.01172 z M 600.31445 341.01172 L 600.31445 465.51172 L 600.31445 465.51367 L 600.31445 960.62891 L 415.11914 960.62891 L 415.11914 465.51367 L 415.11914 465.51172 L 600.31445 341.01172 z "
       transform="scale(0.26458333)" />
  </g>
</svg>
