<?xml version="1.0" encoding="UTF-8" standalone="no"?>
<svg
   xmlns:dc="http://purl.org/dc/elements/1.1/"
   xmlns:cc="http://creativecommons.org/ns#"
   xmlns:rdf="http://www.w3.org/1999/02/22-rdf-syntax-ns#"
   xmlns:svg="http://www.w3.org/2000/svg"
   xmlns="http://www.w3.org/2000/svg"
   width="210mm"
   height="297mm"
   viewBox="0 0 210 297"
   version="1.1"
   id="svg47">
  <defs
     id="defs41" />
  <metadata
     id="metadata44">
    <rdf:RDF>
      <cc:Work
         rdf:about="">
        <dc:format>image/svg+xml</dc:format>
        <dc:type
           rdf:resource="http://purl.org/dc/dcmitype/StillImage" />
        <dc:title></dc:title>
      </cc:Work>
    </rdf:RDF>
  </metadata>
  <g
     id="layer1">
    <path
       id="rect15884"
       style="fill:#666666;fill-opacity:1;fill-rule:evenodd;stroke:none;stroke-width:0.175249px;stroke-linecap:butt;stroke-linejoin:miter;stroke-opacity:1"
       d="M -3.1667317,34.166907 V 262.16642 H 214.8334 V 34.166907 Z M 52.833467,42.166419 H 158.83319 v 40.000142 5.15e-4 L 105.83333,116.16707 52.833467,82.167076 v -5.15e-4 z M 4.8338133,42.166935 H 44.833438 V 206.16674 H 4.8338133 Z m 161.9999267,0 h 39.99963 V 206.16674 H 166.83374 Z M 52.833467,90.225502 101.83306,123.16664 v 5.2e-4 130.99924 H 52.833467 v -130.99924 -5.2e-4 z m 105.999723,0 v 32.941138 5.2e-4 130.99924 H 109.8336 v -130.99924 -5.2e-4 h 5.2e-4 z M 4.8338133,214.16677 H 44.833438 v 40.00014 H 4.8338133 Z m 161.9999267,0 h 39.99963 v 40.00014 h -39.99963 z" />
  </g>
</svg>
