<?xml version="1.0" encoding="UTF-8" standalone="no"?>
<svg
   xmlns:dc="http://purl.org/dc/elements/1.1/"
   xmlns:cc="http://creativecommons.org/ns#"
   xmlns:rdf="http://www.w3.org/1999/02/22-rdf-syntax-ns#"
   xmlns:svg="http://www.w3.org/2000/svg"
   xmlns="http://www.w3.org/2000/svg"
   xmlns:sodipodi="http://sodipodi.sourceforge.net/DTD/sodipodi-0.dtd"
   xmlns:inkscape="http://www.inkscape.org/namespaces/inkscape"
   width="92.000008mm"
   height="91.828125mm"
   viewBox="0 0 325.98428 325.37523"
   id="svg2"
   version="1.1"
   inkscape:version="1.0.2 (e86c8708, 2021-01-15)"
   sodipodi:docname="2xhung1to1realdiv.svg">
  <defs
     id="defs4" />
  <sodipodi:namedview
     id="base"
     pagecolor="#ffffff"
     bordercolor="#666666"
     borderopacity="1.0"
     inkscape:pageopacity="0.0"
     inkscape:pageshadow="2"
     inkscape:zoom="1.4834529"
     inkscape:cx="162.99213"
     inkscape:cy="162.66731"
     inkscape:document-units="mm"
     inkscape:current-layer="layer1"
     showgrid="false"
     objecttolerance="20"
     guidetolerance="10000"
     showguides="false"
     inkscape:guide-bbox="true"
     inkscape:window-width="1440"
     inkscape:window-height="792"
     inkscape:window-x="0"
     inkscape:window-y="25"
     inkscape:window-maximized="1"
     inkscape:document-rotation="0">
    <inkscape:grid
       type="xygrid"
       id="grid4136"
       units="mm"
       spacingx="3.543307"
       spacingy="3.5433072"
       empspacing="10"
       originx="0"
       originy="-0.30451499" />
    <sodipodi:guide
       position="446.45667,495.75851"
       orientation="1,0"
       id="guide4213"
       inkscape:label=""
       inkscape:color="rgb(0,0,255)" />
    <sodipodi:guide
       position="42.519683,205.20733"
       orientation="0,1"
       id="guide6243"
       inkscape:label=""
       inkscape:color="rgb(0,0,255)" />
    <sodipodi:guide
       position="283.46456,191.0341"
       orientation="0,1"
       id="guide6245"
       inkscape:label=""
       inkscape:color="rgb(0,0,255)" />
    <sodipodi:guide
       position="446.45667,389.45929"
       orientation="1,0"
       id="guide6287"
       inkscape:label=""
       inkscape:color="rgb(0,0,255)" />
  </sodipodi:namedview>
  <metadata
     id="metadata7">
    <rdf:RDF>
      <cc:Work
         rdf:about="">
        <dc:format>image/svg+xml</dc:format>
        <dc:type
           rdf:resource="http://purl.org/dc/dcmitype/StillImage" />
        <dc:title />
      </cc:Work>
    </rdf:RDF>
  </metadata>
  <g
     inkscape:label="Layer 1"
     inkscape:groupmode="layer"
     id="layer1"
     transform="translate(0,-726.68247)">
    <path
       id="rect4441"
       style="fill:none;fill-rule:evenodd;stroke:#000000;stroke-width:1.77165;stroke-linecap:butt;stroke-linejoin:miter;stroke-miterlimit:4;stroke-dasharray:none;stroke-opacity:1"
       d="m 240.04732,973.5119 h 63.80295 v 56.7163 h -63.80295 z m -70.86609,0 h 63.80295 v 56.7163 h -63.80295 z m 70.86609,-63.77954 h 63.80295 v 56.71634 h -63.80295 z m -70.86609,0 h 63.80295 v 56.71634 h -63.80295 z m -72.6261,63.79126 h 65.55118 v 56.69288 H 96.55513 Z m -74.409422,0 h 65.551178 v 56.69288 H 22.145708 Z M 96.55513,909.74408 h 65.55118 v 56.69291 H 96.55513 Z m -74.409422,0 h 65.551178 v 56.69291 H 22.145708 Z m 217.901612,-99.2243 h 63.80295 v 56.71633 h -63.80295 z m -70.86609,0 h 63.80295 v 56.71633 h -63.80295 z m 70.86609,-63.77955 h 63.80295 v 56.71634 h -63.80295 z m -70.86609,0 h 63.80295 v 56.71634 h -63.80295 z m -72.6261,63.79126 h 65.55118 v 56.69292 H 96.55513 Z m -74.409422,0 h 65.551178 v 56.69292 H 22.145708 Z M 96.55513,746.75195 h 65.55118 v 56.69292 H 96.55513 Z m -74.409422,0 h 65.551178 v 56.69292 H 22.145708 Z m -6.749633,-6.74963 H 310.58824 V 873.97401 H 15.396075 Z M 0,888.48422 H 325.98428 M 1.1786679,727.55658 H 324.80568 V 1051.1836 H 1.1786679 Z M 15.396075,902.99438 H 310.58824 V 1036.9661 H 15.396075 Z" />
  </g>
</svg>
